<svg width="64" height="64" viewBox="0 0 64 64" fill="none" xmlns="http://www.w3.org/2000/svg">
<path d="M0 32C0 14.3269 14.3269 0 32 0C49.6731 0 64 14.3269 64 32C64 49.6731 49.6731 64 32 64C14.3269 64 0 49.6731 0 32Z" fill="black"/>
<mask id="path-2-outside-1_4_7" maskUnits="userSpaceOnUse" x="14" y="19" width="42" height="25" fill="black">
<rect fill="white" x="14" y="19" width="42" height="25"/>
<path d="M15.2519 20.7812H26.955C27.9862 20.7812 28.9185 21.026 29.7519 21.5156C30.5852 22.0052 31.2467 22.6615 31.7362 23.4844C32.2362 24.3073 32.4862 25.2292 32.4862 26.25V27.7031C32.4862 29.151 32.0696 30.25 31.2362 31C31.9758 31.4792 32.5123 32.0521 32.8456 32.7188C33.179 33.375 33.3456 34.1979 33.3456 35.1875V37.6406C33.3456 38.6198 33.0956 39.5156 32.5956 40.3281C32.106 41.1406 31.4446 41.7917 30.6112 42.2812C29.7779 42.7604 28.856 43 27.8456 43H15.2519V20.7812ZM27.8769 39.7031C28.481 39.7031 28.9967 39.5 29.4237 39.0938C29.8508 38.6771 30.0644 38.1771 30.0644 37.5938V35.1406C30.0644 34.5573 29.8508 34.0573 29.4237 33.6406C28.9967 33.224 28.4758 33.0156 27.8612 33.0156H20.4237V29.7344H26.955C27.5696 29.7344 28.0956 29.5365 28.5331 29.1406C28.981 28.7344 29.205 28.2448 29.205 27.6719V26.25C29.205 25.6458 28.981 25.1302 28.5331 24.7031C28.0956 24.276 27.5696 24.0625 26.955 24.0625H18.5487V39.7031H27.8769ZM37.2519 20.7812H40.5331V36.7812C40.5331 37.5938 40.8196 38.2865 41.3925 38.8594C41.9654 39.4323 42.6529 39.7188 43.455 39.7188H54.4706V43H43.455C42.3196 43 41.2779 42.724 40.33 42.1719C39.3925 41.6094 38.6425 40.8594 38.08 39.9219C37.5279 38.974 37.2519 37.9271 37.2519 36.7812V20.7812Z"/>
</mask>
<g filter="url(#filter0_i_4_7)">
<path d="M15.2519 20.7812H26.955C27.9862 20.7812 28.9185 21.026 29.7519 21.5156C30.5852 22.0052 31.2467 22.6615 31.7362 23.4844C32.2362 24.3073 32.4862 25.2292 32.4862 26.25V27.7031C32.4862 29.151 32.0696 30.25 31.2362 31C31.9758 31.4792 32.5123 32.0521 32.8456 32.7188C33.179 33.375 33.3456 34.1979 33.3456 35.1875V37.6406C33.3456 38.6198 33.0956 39.5156 32.5956 40.3281C32.106 41.1406 31.4446 41.7917 30.6112 42.2812C29.7779 42.7604 28.856 43 27.8456 43H15.2519V20.7812ZM27.8769 39.7031C28.481 39.7031 28.9967 39.5 29.4237 39.0938C29.8508 38.6771 30.0644 38.1771 30.0644 37.5938V35.1406C30.0644 34.5573 29.8508 34.0573 29.4237 33.6406C28.9967 33.224 28.4758 33.0156 27.8612 33.0156H20.4237V29.7344H26.955C27.5696 29.7344 28.0956 29.5365 28.5331 29.1406C28.981 28.7344 29.205 28.2448 29.205 27.6719V26.25C29.205 25.6458 28.981 25.1302 28.5331 24.7031C28.0956 24.276 27.5696 24.0625 26.955 24.0625H18.5487V39.7031H27.8769ZM37.2519 20.7812H40.5331V36.7812C40.5331 37.5938 40.8196 38.2865 41.3925 38.8594C41.9654 39.4323 42.6529 39.7188 43.455 39.7188H54.4706V43H43.455C42.3196 43 41.2779 42.724 40.33 42.1719C39.3925 41.6094 38.6425 40.8594 38.08 39.9219C37.5279 38.974 37.2519 37.9271 37.2519 36.7812V20.7812Z" fill="url(#paint0_linear_4_7)"/>
</g>
<path d="M15.2519 20.7812V19.7812H14.2519V20.7812H15.2519ZM29.7519 21.5156L30.2584 20.6534L29.7519 21.5156ZM31.7362 23.4844L30.8768 23.9957L30.8816 24.0036L31.7362 23.4844ZM31.2362 31L30.5673 30.2567L29.5973 31.1297L30.6925 31.8393L31.2362 31ZM32.8456 32.7188L31.9512 33.166L31.954 33.1716L32.8456 32.7188ZM32.5956 40.3281L31.7439 39.804L31.7391 39.812L32.5956 40.3281ZM30.6112 42.2812L31.1097 43.1482L31.1178 43.1435L30.6112 42.2812ZM15.2519 43H14.2519V44H15.2519V43ZM29.4237 39.0938L30.113 39.8184L30.1221 39.8095L29.4237 39.0938ZM29.4237 33.6406L30.1221 32.9248L29.4237 33.6406ZM20.4237 33.0156H19.4237V34.0156H20.4237V33.0156ZM20.4237 29.7344V28.7344H19.4237V29.7344H20.4237ZM28.5331 29.1406L29.204 29.8822L29.2049 29.8813L28.5331 29.1406ZM28.5331 24.7031L27.8345 25.4187L27.8431 25.4269L28.5331 24.7031ZM18.5487 24.0625V23.0625H17.5487V24.0625H18.5487ZM18.5487 39.7031H17.5487V40.7031H18.5487V39.7031ZM15.2519 20.7812V21.7812H26.955V20.7812V19.7812H15.2519V20.7812ZM26.955 20.7812V21.7812C27.8205 21.7812 28.5759 21.9845 29.2453 22.3778L29.7519 21.5156L30.2584 20.6534C29.2612 20.0675 28.152 19.7812 26.955 19.7812V20.7812ZM29.7519 21.5156L29.2453 22.3778C29.9348 22.7829 30.4743 23.319 30.8768 23.9957L31.7362 23.4844L32.5957 22.9731C32.0191 22.0039 31.2356 21.2275 30.2584 20.6534L29.7519 21.5156ZM31.7362 23.4844L30.8816 24.0036C31.2807 24.6605 31.4862 25.4008 31.4862 26.25H32.4862H33.4862C33.4862 25.0575 33.1918 23.9541 32.5909 22.9651L31.7362 23.4844ZM32.4862 26.25H31.4862V27.7031H32.4862H33.4862V26.25H32.4862ZM32.4862 27.7031H31.4862C31.4862 28.9554 31.1324 29.7481 30.5673 30.2567L31.2362 31L31.9052 31.7433C33.0067 30.7519 33.4862 29.3467 33.4862 27.7031H32.4862ZM31.2362 31L30.6925 31.8393C31.3098 32.2392 31.7112 32.6859 31.9512 33.166L32.8456 32.7188L33.7401 32.2715C33.3134 31.4183 32.6419 30.7191 31.78 30.1607L31.2362 31ZM32.8456 32.7188L31.954 33.1716C32.1959 33.6477 32.3456 34.3036 32.3456 35.1875H33.3456H34.3456C34.3456 34.0923 34.162 33.1023 33.7372 32.2659L32.8456 32.7188ZM33.3456 35.1875H32.3456V37.6406H33.3456H34.3456V35.1875H33.3456ZM33.3456 37.6406H32.3456C32.3456 38.4399 32.1443 39.1535 31.744 39.804L32.5956 40.3281L33.4473 40.8522C34.0469 39.8778 34.3456 38.7997 34.3456 37.6406H33.3456ZM32.5956 40.3281L31.7391 39.812C31.3372 40.479 30.7972 41.0122 30.1047 41.419L30.6112 42.2812L31.1178 43.1435C32.092 42.5711 32.8749 41.8022 33.4521 40.8442L32.5956 40.3281ZM30.6112 42.2812L30.1128 41.4143C29.439 41.8018 28.6904 42 27.8456 42V43V44C29.0217 44 30.1169 43.719 31.1097 43.1482L30.6112 42.2812ZM27.8456 43V42H15.2519V43V44H27.8456V43ZM15.2519 43H16.2519V20.7812H15.2519H14.2519V43H15.2519ZM27.8769 39.7031V40.7031C28.7305 40.7031 29.4949 40.4062 30.113 39.8183L29.4237 39.0938L28.7345 38.3692C28.4984 38.5938 28.2316 38.7031 27.8769 38.7031V39.7031ZM29.4237 39.0938L30.1221 39.8095C30.7371 39.2095 31.0644 38.4534 31.0644 37.5938H30.0644H29.0644C29.0644 37.9007 28.9646 38.1447 28.7254 38.378L29.4237 39.0938ZM30.0644 37.5938H31.0644V35.1406H30.0644H29.0644V37.5938H30.0644ZM30.0644 35.1406H31.0644C31.0644 34.2809 30.7371 33.5249 30.1221 32.9248L29.4237 33.6406L28.7254 34.3564C28.9646 34.5897 29.0644 34.8336 29.0644 35.1406H30.0644ZM29.4237 33.6406L30.1221 32.9248C29.5021 32.3199 28.728 32.0156 27.8612 32.0156V33.0156V34.0156C28.2236 34.0156 28.4913 34.128 28.7254 34.3564L29.4237 33.6406ZM27.8612 33.0156V32.0156H20.4237V33.0156V34.0156H27.8612V33.0156ZM20.4237 33.0156H21.4237V29.7344H20.4237H19.4237V33.0156H20.4237ZM20.4237 29.7344V30.7344H26.955V29.7344V28.7344H20.4237V29.7344ZM26.955 29.7344V30.7344C27.8062 30.7344 28.5744 30.4518 29.204 29.8822L28.5331 29.1406L27.8622 28.3991C27.6168 28.6211 27.333 28.7344 26.955 28.7344V29.7344ZM28.5331 29.1406L29.2049 29.8813C29.8488 29.2974 30.205 28.5441 30.205 27.6719H29.205H28.205C28.205 27.9454 28.1133 28.1713 27.8613 28.3999L28.5331 29.1406ZM29.205 27.6719H30.205V26.25H29.205H28.205V27.6719H29.205ZM29.205 26.25H30.205C30.205 25.3649 29.8636 24.59 29.2232 23.9794L28.5331 24.7031L27.8431 25.4269C28.0985 25.6704 28.205 25.9267 28.205 26.25H29.205ZM28.5331 24.7031L29.2317 23.9876C28.6063 23.3771 27.8291 23.0625 26.955 23.0625V24.0625V25.0625C27.3101 25.0625 27.585 25.175 27.8346 25.4187L28.5331 24.7031ZM26.955 24.0625V23.0625H18.5487V24.0625V25.0625H26.955V24.0625ZM18.5487 24.0625H17.5487V39.7031H18.5487H19.5487V24.0625H18.5487ZM18.5487 39.7031V40.7031H27.8769V39.7031V38.7031H18.5487V39.7031ZM37.2519 20.7812V19.7812H36.2519V20.7812H37.2519ZM40.5331 20.7812H41.5331V19.7812H40.5331V20.7812ZM41.3925 38.8594L40.6854 39.5665L41.3925 38.8594ZM54.4706 39.7188H55.4706V38.7188H54.4706V39.7188ZM54.4706 43V44H55.4706V43H54.4706ZM40.33 42.1719L39.8155 43.0294L39.8267 43.036L40.33 42.1719ZM38.08 39.9219L37.2158 40.4252L37.2225 40.4364L38.08 39.9219ZM37.2519 20.7812V21.7812H40.5331V20.7812V19.7812H37.2519V20.7812ZM40.5331 20.7812H39.5331V36.7812H40.5331H41.5331V20.7812H40.5331ZM40.5331 36.7812H39.5331C39.5331 37.8581 39.9243 38.8054 40.6854 39.5665L41.3925 38.8594L42.0996 38.1523C41.7148 37.7675 41.5331 37.3294 41.5331 36.7812H40.5331ZM41.3925 38.8594L40.6854 39.5665C41.4437 40.3248 42.3847 40.7188 43.455 40.7188V39.7188V38.7188C42.9211 38.7188 42.4871 38.5398 42.0996 38.1523L41.3925 38.8594ZM43.455 39.7188V40.7188H54.4706V39.7188V38.7188H43.455V39.7188ZM54.4706 39.7188H53.4706V43H54.4706H55.4706V39.7188H54.4706ZM54.4706 43V42H43.455V43V44H54.4706V43ZM43.455 43V42C42.4899 42 41.6229 41.7676 40.8333 41.3078L40.33 42.1719L39.8267 43.036C40.9329 43.6803 42.1492 44 43.455 44V43ZM40.33 42.1719L40.8445 41.3144C40.0477 40.8363 39.4155 40.2041 38.9375 39.4074L38.08 39.9219L37.2225 40.4364C37.8695 41.5146 38.7373 42.3824 39.8155 43.0294L40.33 42.1719ZM38.08 39.9219L38.9441 39.4186C38.4851 38.6304 38.2519 37.7585 38.2519 36.7812H37.2519H36.2519C36.2519 38.0957 36.5708 39.3175 37.2159 40.4252L38.08 39.9219ZM37.2519 36.7812H38.2519V20.7812H37.2519H36.2519V36.7812H37.2519Z" fill="black" mask="url(#path-2-outside-1_4_7)"/>
<defs>
<filter id="filter0_i_4_7" x="14.2519" y="19.7812" width="41.2188" height="24.2188" filterUnits="userSpaceOnUse" color-interpolation-filters="sRGB">
<feFlood flood-opacity="0" result="BackgroundImageFix"/>
<feBlend mode="normal" in="SourceGraphic" in2="BackgroundImageFix" result="shape"/>
<feColorMatrix in="SourceAlpha" type="matrix" values="0 0 0 0 0 0 0 0 0 0 0 0 0 0 0 0 0 0 127 0" result="hardAlpha"/>
<feOffset dx="100" dy="40"/>
<feGaussianBlur stdDeviation="20"/>
<feComposite in2="hardAlpha" operator="arithmetic" k2="-1" k3="1"/>
<feColorMatrix type="matrix" values="0 0 0 0 0 0 0 0 0 0.933333 0 0 0 0 1 0 0 0 0.25 0"/>
<feBlend mode="normal" in2="shape" result="effect1_innerShadow_4_7"/>
</filter>
<linearGradient id="paint0_linear_4_7" x1="20.2051" y1="9.58492" x2="59.1402" y2="41.9725" gradientUnits="userSpaceOnUse">
<stop offset="0.412267" stop-color="#6C31F4"/>
<stop offset="0.501992" stop-color="#9067F3"/>
<stop offset="0.588573" stop-color="#A985FF"/>
<stop offset="0.644342" stop-color="#AC94F1"/>
</linearGradient>
</defs>
</svg>
