<svg width="100" height="100" viewBox="0 0 100 100" fill="none" xmlns="http://www.w3.org/2000/svg">
<path d="M0 50C0 22.3858 22.3858 0 50 0C77.6142 0 100 22.3858 100 50C100 77.6142 77.6142 100 50 100C22.3858 100 0 77.6142 0 50Z" fill="black"/>
<mask id="path-2-outside-1_4_7" maskUnits="userSpaceOnUse" x="10" y="26" width="80" height="47" fill="black">
<rect fill="white" x="10" y="26" width="80" height="47"/>
<path d="M18.6758 27.3359H27.4531C28.2266 27.3359 28.9258 27.5195 29.5508 27.8867C30.1758 28.2539 30.6719 28.7461 31.0391 29.3633C31.4141 29.9805 31.6016 30.6719 31.6016 31.4375V32.5273C31.6016 33.6133 31.2891 34.4375 30.6641 35C31.2188 35.3594 31.6211 35.7891 31.8711 36.2891C32.1211 36.7812 32.2461 37.3984 32.2461 38.1406V39.9805C32.2461 40.7148 32.0586 41.3867 31.6836 41.9961C31.3164 42.6055 30.8203 43.0938 30.1953 43.4609C29.5703 43.8203 28.8789 44 28.1211 44H18.6758V27.3359ZM28.1445 41.5273C28.5977 41.5273 28.9844 41.375 29.3047 41.0703C29.625 40.7578 29.7852 40.3828 29.7852 39.9453V38.1055C29.7852 37.668 29.625 37.293 29.3047 36.9805C28.9844 36.668 28.5938 36.5117 28.1328 36.5117H22.5547V34.0508H27.4531C27.9141 34.0508 28.3086 33.9023 28.6367 33.6055C28.9727 33.3008 29.1406 32.9336 29.1406 32.5039V31.4375C29.1406 30.9844 28.9727 30.5977 28.6367 30.2773C28.3086 29.957 27.9141 29.7969 27.4531 29.7969H21.1484V41.5273H28.1445ZM35.1758 27.3359H37.6484V39.3242C37.6484 39.9336 37.8711 40.4531 38.3164 40.8828C38.7617 41.3125 39.2969 41.5273 39.9219 41.5273H44.0117C44.6367 41.5273 45.1719 41.3125 45.6172 40.8828C46.0625 40.4531 46.2852 39.9336 46.2852 39.3242V27.3359H48.7461V39.3477C48.7461 40.1992 48.5312 40.9805 48.1016 41.6914C47.6797 42.3945 47.1094 42.957 46.3906 43.3789C45.6797 43.793 44.8867 44 44.0117 44H39.9219C39.0469 44 38.25 43.793 37.5312 43.3789C36.8125 42.957 36.2383 42.3945 35.8086 41.6914C35.3867 40.9805 35.1758 40.1992 35.1758 39.3477V27.3359ZM52.0273 27.3359H60.8867C61.7539 27.3359 62.543 27.5469 63.2539 27.9688C63.9727 28.3906 64.543 28.957 64.9648 29.668C65.3867 30.3711 65.5977 31.1562 65.5977 32.0234V39.3594C65.5977 40.2109 65.3867 40.9883 64.9648 41.6914C64.543 42.3945 63.9727 42.957 63.2539 43.3789C62.543 43.793 61.7539 44 60.8867 44H52.0273V27.3359ZM60.8867 41.5273C61.5117 41.5273 62.043 41.3125 62.4805 40.8828C62.918 40.4531 63.1367 39.9336 63.1367 39.3242V32.0234C63.1367 31.4062 62.918 30.8828 62.4805 30.4531C62.043 30.0156 61.5117 29.7969 60.8867 29.7969H54.5V41.5273H60.8867ZM73.4375 27.3359H76.5195L82.4844 44H79.8477L78.0312 38.9844H73.3789L74.2695 36.5234H77.1406L74.9844 30.5703L70.1094 44H67.4727L73.4375 27.3359ZM11.9844 55.3359H14.4453V67.3359C14.4453 67.9453 14.6602 68.4648 15.0898 68.8945C15.5195 69.3242 16.0352 69.5391 16.6367 69.5391H24.8984V72H16.6367C15.7852 72 15.0039 71.793 14.293 71.3789C13.5898 70.957 13.0273 70.3945 12.6055 69.6914C12.1914 68.9805 11.9844 68.1953 11.9844 67.3359V55.3359ZM27.0078 55.3359H39.9336V57.7969H29.4805V69.5273H39.9336V72H27.0078V55.3359ZM30.8867 62.0977H39.9336V64.5586H30.8867V62.0977ZM47.7852 55.3359H50.8672L56.832 72H54.1953L52.3789 66.9844H47.7266L48.6172 64.5234H51.4883L49.332 58.5703L44.457 72H41.8203L47.7852 55.3359ZM58.9531 55.3359H67.7656C68.5234 55.3359 69.2109 55.5234 69.8281 55.8984C70.4531 56.2656 70.9492 56.7578 71.3164 57.375C71.6914 57.9922 71.8789 58.6797 71.8789 59.4375V61.1016C71.8789 61.8594 71.6953 62.543 71.3281 63.1523C70.9688 63.7617 70.4766 64.2461 69.8516 64.6055C69.2266 64.9648 68.5273 65.1445 67.7539 65.1445L72.7227 72H69.7109L64.7422 65.1445H62.832V62.6836H67.7656C68.2266 62.6836 68.6172 62.5273 68.9375 62.2148C69.2578 61.8945 69.418 61.5117 69.418 61.0664V59.4375C69.418 58.9844 69.2578 58.5977 68.9375 58.2773C68.6172 57.957 68.2266 57.7969 67.7656 57.7969H61.4258V72H58.9531V55.3359ZM75.0781 55.3359H78.2891L85.543 68.4258V55.3359H88.0156V72H84.8047L77.5508 59.0859V72H75.0781V55.3359Z"/>
</mask>
<g filter="url(#filter0_i_4_7)">
<path d="M18.6758 27.3359H27.4531C28.2266 27.3359 28.9258 27.5195 29.5508 27.8867C30.1758 28.2539 30.6719 28.7461 31.0391 29.3633C31.4141 29.9805 31.6016 30.6719 31.6016 31.4375V32.5273C31.6016 33.6133 31.2891 34.4375 30.6641 35C31.2188 35.3594 31.6211 35.7891 31.8711 36.2891C32.1211 36.7812 32.2461 37.3984 32.2461 38.1406V39.9805C32.2461 40.7148 32.0586 41.3867 31.6836 41.9961C31.3164 42.6055 30.8203 43.0938 30.1953 43.4609C29.5703 43.8203 28.8789 44 28.1211 44H18.6758V27.3359ZM28.1445 41.5273C28.5977 41.5273 28.9844 41.375 29.3047 41.0703C29.625 40.7578 29.7852 40.3828 29.7852 39.9453V38.1055C29.7852 37.668 29.625 37.293 29.3047 36.9805C28.9844 36.668 28.5938 36.5117 28.1328 36.5117H22.5547V34.0508H27.4531C27.9141 34.0508 28.3086 33.9023 28.6367 33.6055C28.9727 33.3008 29.1406 32.9336 29.1406 32.5039V31.4375C29.1406 30.9844 28.9727 30.5977 28.6367 30.2773C28.3086 29.957 27.9141 29.7969 27.4531 29.7969H21.1484V41.5273H28.1445ZM35.1758 27.3359H37.6484V39.3242C37.6484 39.9336 37.8711 40.4531 38.3164 40.8828C38.7617 41.3125 39.2969 41.5273 39.9219 41.5273H44.0117C44.6367 41.5273 45.1719 41.3125 45.6172 40.8828C46.0625 40.4531 46.2852 39.9336 46.2852 39.3242V27.3359H48.7461V39.3477C48.7461 40.1992 48.5312 40.9805 48.1016 41.6914C47.6797 42.3945 47.1094 42.957 46.3906 43.3789C45.6797 43.793 44.8867 44 44.0117 44H39.9219C39.0469 44 38.25 43.793 37.5312 43.3789C36.8125 42.957 36.2383 42.3945 35.8086 41.6914C35.3867 40.9805 35.1758 40.1992 35.1758 39.3477V27.3359ZM52.0273 27.3359H60.8867C61.7539 27.3359 62.543 27.5469 63.2539 27.9688C63.9727 28.3906 64.543 28.957 64.9648 29.668C65.3867 30.3711 65.5977 31.1562 65.5977 32.0234V39.3594C65.5977 40.2109 65.3867 40.9883 64.9648 41.6914C64.543 42.3945 63.9727 42.957 63.2539 43.3789C62.543 43.793 61.7539 44 60.8867 44H52.0273V27.3359ZM60.8867 41.5273C61.5117 41.5273 62.043 41.3125 62.4805 40.8828C62.918 40.4531 63.1367 39.9336 63.1367 39.3242V32.0234C63.1367 31.4062 62.918 30.8828 62.4805 30.4531C62.043 30.0156 61.5117 29.7969 60.8867 29.7969H54.5V41.5273H60.8867ZM73.4375 27.3359H76.5195L82.4844 44H79.8477L78.0312 38.9844H73.3789L74.2695 36.5234H77.1406L74.9844 30.5703L70.1094 44H67.4727L73.4375 27.3359ZM11.9844 55.3359H14.4453V67.3359C14.4453 67.9453 14.6602 68.4648 15.0898 68.8945C15.5195 69.3242 16.0352 69.5391 16.6367 69.5391H24.8984V72H16.6367C15.7852 72 15.0039 71.793 14.293 71.3789C13.5898 70.957 13.0273 70.3945 12.6055 69.6914C12.1914 68.9805 11.9844 68.1953 11.9844 67.3359V55.3359ZM27.0078 55.3359H39.9336V57.7969H29.4805V69.5273H39.9336V72H27.0078V55.3359ZM30.8867 62.0977H39.9336V64.5586H30.8867V62.0977ZM47.7852 55.3359H50.8672L56.832 72H54.1953L52.3789 66.9844H47.7266L48.6172 64.5234H51.4883L49.332 58.5703L44.457 72H41.8203L47.7852 55.3359ZM58.9531 55.3359H67.7656C68.5234 55.3359 69.2109 55.5234 69.8281 55.8984C70.4531 56.2656 70.9492 56.7578 71.3164 57.375C71.6914 57.9922 71.8789 58.6797 71.8789 59.4375V61.1016C71.8789 61.8594 71.6953 62.543 71.3281 63.1523C70.9688 63.7617 70.4766 64.2461 69.8516 64.6055C69.2266 64.9648 68.5273 65.1445 67.7539 65.1445L72.7227 72H69.7109L64.7422 65.1445H62.832V62.6836H67.7656C68.2266 62.6836 68.6172 62.5273 68.9375 62.2148C69.2578 61.8945 69.418 61.5117 69.418 61.0664V59.4375C69.418 58.9844 69.2578 58.5977 68.9375 58.2773C68.6172 57.957 68.2266 57.7969 67.7656 57.7969H61.4258V72H58.9531V55.3359ZM75.0781 55.3359H78.2891L85.543 68.4258V55.3359H88.0156V72H84.8047L77.5508 59.0859V72H75.0781V55.3359Z" fill="url(#paint0_linear_4_7)"/>
</g>
<path d="M18.6758 27.3359V26.3359H17.6758V27.3359H18.6758ZM31.0391 29.3633L30.1796 29.8746L30.1844 29.8825L31.0391 29.3633ZM30.6641 35L29.9951 34.2567L29.0251 35.1297L30.1203 35.8393L30.6641 35ZM31.8711 36.2891L30.9766 36.7363L30.9795 36.7419L31.8711 36.2891ZM31.6836 41.9961L30.8319 41.472L30.8271 41.48L31.6836 41.9961ZM30.1953 43.4609L30.6938 44.3279L30.7019 44.3231L30.1953 43.4609ZM18.6758 44H17.6758V45H18.6758V44ZM29.3047 41.0703L29.994 41.7949L30.003 41.7861L29.3047 41.0703ZM22.5547 36.5117H21.5547V37.5117H22.5547V36.5117ZM22.5547 34.0508V33.0508H21.5547V34.0508H22.5547ZM28.6367 33.6055L29.3076 34.347L29.3085 34.3462L28.6367 33.6055ZM28.6367 30.2773L27.9381 30.993L27.9466 31.0011L28.6367 30.2773ZM21.1484 29.7969V28.7969H20.1484V29.7969H21.1484ZM21.1484 41.5273H20.1484V42.5273H21.1484V41.5273ZM18.6758 27.3359V28.3359H27.4531V27.3359V26.3359H18.6758V27.3359ZM27.4531 27.3359V28.3359C28.0608 28.3359 28.5831 28.478 29.0442 28.7489L29.5508 27.8867L30.0573 27.0245C29.2684 26.561 28.3923 26.3359 27.4531 26.3359V27.3359ZM29.5508 27.8867L29.0442 28.7489C29.5253 29.0316 29.8995 29.4036 30.1797 29.8746L31.0391 29.3633L31.8985 28.852C31.4443 28.0886 30.8262 27.4762 30.0573 27.0245L29.5508 27.8867ZM31.0391 29.3633L30.1844 29.8825C30.4586 30.3337 30.6016 30.8435 30.6016 31.4375H31.6016H32.6016C32.6016 30.5002 32.3696 29.6273 31.8937 28.844L31.0391 29.3633ZM31.6016 31.4375H30.6016V32.5273H31.6016H32.6016V31.4375H31.6016ZM31.6016 32.5273H30.6016C30.6016 33.4176 30.3519 33.9356 29.9951 34.2567L30.6641 35L31.333 35.7433C32.2262 34.9394 32.6016 33.809 32.6016 32.5273H31.6016ZM30.6641 35L30.1203 35.8393C30.5527 36.1194 30.82 36.4229 30.9767 36.7363L31.8711 36.2891L32.7655 35.8419C32.4222 35.1553 31.8848 34.5993 31.2078 34.1607L30.6641 35ZM31.8711 36.2891L30.9795 36.7419C31.138 37.054 31.2461 37.5041 31.2461 38.1406H32.2461H33.2461C33.2461 37.2928 33.1042 36.5085 32.7627 35.8362L31.8711 36.2891ZM32.2461 38.1406H31.2461V39.9805H32.2461H33.2461V38.1406H32.2461ZM32.2461 39.9805H31.2461C31.2461 40.5349 31.1073 41.0245 30.8319 41.472L31.6836 41.9961L32.5353 42.5202C33.0099 41.7489 33.2461 40.8948 33.2461 39.9805H32.2461ZM31.6836 41.9961L30.8271 41.48C30.5476 41.9439 30.1729 42.3143 29.6888 42.5987L30.1953 43.4609L30.7019 44.3231C31.4677 43.8732 32.0853 43.2671 32.5401 42.5122L31.6836 41.9961ZM30.1953 43.4609L29.6968 42.594C29.2314 42.8617 28.7133 43 28.1211 43V44V45C29.0445 45 29.9093 44.7789 30.6938 44.3278L30.1953 43.4609ZM28.1211 44V43H18.6758V44V45H28.1211V44ZM18.6758 44H19.6758V27.3359H18.6758H17.6758V44H18.6758ZM28.1445 41.5273V42.5273C28.8471 42.5273 29.4826 42.2812 29.9939 41.7949L29.3047 41.0703L28.6155 40.3458C28.4862 40.4688 28.3482 40.5273 28.1445 40.5273V41.5273ZM29.3047 41.0703L30.003 41.7861C30.5113 41.2902 30.7852 40.6592 30.7852 39.9453H29.7852H28.7852C28.7852 40.1065 28.7387 40.2254 28.6064 40.3545L29.3047 41.0703ZM29.7852 39.9453H30.7852V38.1055H29.7852H28.7852V39.9453H29.7852ZM29.7852 38.1055H30.7852C30.7852 37.3916 30.5113 36.7605 30.003 36.2647L29.3047 36.9805L28.6064 37.6963C28.7387 37.8254 28.7852 37.9443 28.7852 38.1055H29.7852ZM29.3047 36.9805L30.003 36.2647C29.4898 35.764 28.846 35.5117 28.1328 35.5117V36.5117V37.5117C28.3415 37.5117 28.479 37.572 28.6064 37.6963L29.3047 36.9805ZM28.1328 36.5117V35.5117H22.5547V36.5117V37.5117H28.1328V36.5117ZM22.5547 36.5117H23.5547V34.0508H22.5547H21.5547V36.5117H22.5547ZM22.5547 34.0508V35.0508H27.4531V34.0508V33.0508H22.5547V34.0508ZM27.4531 34.0508V35.0508C28.1507 35.0508 28.7874 34.8177 29.3076 34.347L28.6367 33.6055L27.9658 32.8639C27.8298 32.987 27.6775 33.0508 27.4531 33.0508V34.0508ZM28.6367 33.6055L29.3085 34.3462C29.8404 33.8638 30.1406 33.2329 30.1406 32.5039H29.1406H28.1406C28.1406 32.6342 28.1049 32.7377 27.9649 32.8647L28.6367 33.6055ZM29.1406 32.5039H30.1406V31.4375H29.1406H28.1406V32.5039H29.1406ZM29.1406 31.4375H30.1406C30.1406 30.7035 29.8552 30.0574 29.3268 29.5536L28.6367 30.2773L27.9466 31.0011C28.0901 31.1379 28.1406 31.2653 28.1406 31.4375H29.1406ZM28.6367 30.2773L29.3353 29.5618C28.8192 29.058 28.1736 28.7969 27.4531 28.7969V29.7969V30.7969C27.6545 30.7969 27.7979 30.856 27.9382 30.9929L28.6367 30.2773ZM27.4531 29.7969V28.7969H21.1484V29.7969V30.7969H27.4531V29.7969ZM21.1484 29.7969H20.1484V41.5273H21.1484H22.1484V29.7969H21.1484ZM21.1484 41.5273V42.5273H28.1445V41.5273V40.5273H21.1484V41.5273ZM35.1758 27.3359V26.3359H34.1758V27.3359H35.1758ZM37.6484 27.3359H38.6484V26.3359H37.6484V27.3359ZM46.2852 27.3359V26.3359H45.2852V27.3359H46.2852ZM48.7461 27.3359H49.7461V26.3359H48.7461V27.3359ZM48.1016 41.6914L47.2457 41.1741L47.2441 41.1769L48.1016 41.6914ZM46.3906 43.3789L46.8939 44.243L46.8968 44.2413L46.3906 43.3789ZM37.5312 43.3789L37.025 44.2414L37.0321 44.2454L37.5312 43.3789ZM35.8086 41.6914L34.9485 42.2018L34.9553 42.2129L35.8086 41.6914ZM35.1758 27.3359V28.3359H37.6484V27.3359V26.3359H35.1758V27.3359ZM37.6484 27.3359H36.6484V39.3242H37.6484H38.6484V27.3359H37.6484ZM37.6484 39.3242H36.6484C36.6484 40.2097 36.9848 40.9876 37.622 41.6024L38.3164 40.8828L39.0108 40.1632C38.7574 39.9187 38.6484 39.6575 38.6484 39.3242H37.6484ZM38.3164 40.8828L37.622 41.6024C38.2558 42.214 39.0407 42.5273 39.9219 42.5273V41.5273V40.5273C39.553 40.5273 39.2676 40.411 39.0108 40.1632L38.3164 40.8828ZM39.9219 41.5273V42.5273H44.0117V41.5273V40.5273H39.9219V41.5273ZM44.0117 41.5273V42.5273C44.8929 42.5273 45.6778 42.214 46.3116 41.6024L45.6172 40.8828L44.9228 40.1632C44.666 40.411 44.3806 40.5273 44.0117 40.5273V41.5273ZM45.6172 40.8828L46.3116 41.6024C46.9488 40.9876 47.2852 40.2097 47.2852 39.3242H46.2852H45.2852C45.2852 39.6575 45.1762 39.9187 44.9228 40.1632L45.6172 40.8828ZM46.2852 39.3242H47.2852V27.3359H46.2852H45.2852V39.3242H46.2852ZM46.2852 27.3359V28.3359H48.7461V27.3359V26.3359H46.2852V27.3359ZM48.7461 27.3359H47.7461V39.3477H48.7461H49.7461V27.3359H48.7461ZM48.7461 39.3477H47.7461C47.7461 40.0217 47.5786 40.6233 47.2457 41.1741L48.1016 41.6914L48.9574 42.2087C49.4839 41.3376 49.7461 40.3767 49.7461 39.3477H48.7461ZM48.1016 41.6914L47.2441 41.1769C46.9098 41.7341 46.4613 42.1779 45.8844 42.5165L46.3906 43.3789L46.8968 44.2413C47.7575 43.7362 48.4496 43.055 48.9591 42.2059L48.1016 41.6914ZM46.3906 43.3789L45.8873 42.5148C45.339 42.8342 44.7216 43 44.0117 43V44V45C45.0519 45 46.0204 44.7518 46.8939 44.243L46.3906 43.3789ZM44.0117 44V43H39.9219V44V45H44.0117V44ZM39.9219 44V43C39.2121 43 38.5889 42.8342 38.0304 42.5124L37.5312 43.3789L37.0321 44.2454C37.9111 44.7518 38.8816 45 39.9219 45V44ZM37.5312 43.3789L38.0375 42.5165C37.459 42.177 37.0047 41.7309 36.6619 41.17L35.8086 41.6914L34.9553 42.2129C35.4719 43.0581 36.166 43.7371 37.0251 44.2413L37.5312 43.3789ZM35.8086 41.6914L36.6686 41.1811C36.3412 40.6294 36.1758 40.0253 36.1758 39.3477H35.1758H34.1758C34.1758 40.3731 34.4322 41.3315 34.9486 42.2017L35.8086 41.6914ZM35.1758 39.3477H36.1758V27.3359H35.1758H34.1758V39.3477H35.1758ZM52.0273 27.3359V26.3359H51.0273V27.3359H52.0273ZM63.2539 27.9688L62.7436 28.8287L62.7477 28.8312L63.2539 27.9688ZM64.9648 29.668L64.1049 30.1783L64.1073 30.1825L64.9648 29.668ZM63.2539 43.3789L63.7572 44.243L63.7601 44.2413L63.2539 43.3789ZM52.0273 44H51.0273V45H52.0273V44ZM62.4805 30.4531L61.7733 31.1603L61.7798 31.1666L62.4805 30.4531ZM54.5 29.7969V28.7969H53.5V29.7969H54.5ZM54.5 41.5273H53.5V42.5273H54.5V41.5273ZM52.0273 27.3359V28.3359H60.8867V27.3359V26.3359H52.0273V27.3359ZM60.8867 27.3359V28.3359C61.5835 28.3359 62.1948 28.5031 62.7436 28.8287L63.2539 27.9688L63.7642 27.1088C62.8911 26.5907 61.9243 26.3359 60.8867 26.3359V27.3359ZM63.2539 27.9688L62.7477 28.8312C63.3219 29.1682 63.77 29.614 64.1049 30.1783L64.9648 29.668L65.8248 29.1576C65.3159 28.3001 64.6234 27.6131 63.7601 27.1063L63.2539 27.9688ZM64.9648 29.668L64.1073 30.1825C64.4305 30.7211 64.5977 31.3266 64.5977 32.0234H65.5977H66.5977C66.5977 30.9859 66.3429 30.0211 65.8223 29.1535L64.9648 29.668ZM65.5977 32.0234H64.5977V39.3594H65.5977H66.5977V32.0234H65.5977ZM65.5977 39.3594H64.5977C64.5977 40.037 64.4323 40.6354 64.1073 41.1769L64.9648 41.6914L65.8223 42.2059C66.3412 41.3412 66.5977 40.3849 66.5977 39.3594H65.5977ZM64.9648 41.6914L64.1073 41.1769C63.7731 41.7341 63.3246 42.1779 62.7477 42.5165L63.2539 43.3789L63.7601 44.2413C64.6208 43.7362 65.3129 43.055 65.8223 42.2059L64.9648 41.6914ZM63.2539 43.3789L62.7506 42.5148C62.2009 42.835 61.587 43 60.8867 43V44V45C61.9208 45 62.8851 44.751 63.7572 44.243L63.2539 43.3789ZM60.8867 44V43H52.0273V44V45H60.8867V44ZM52.0273 44H53.0273V27.3359H52.0273H51.0273V44H52.0273ZM60.8867 41.5273V42.5273C61.7682 42.5273 62.5527 42.2135 63.1812 41.5963L62.4805 40.8828L61.7798 40.1694C61.5332 40.4115 61.2553 40.5273 60.8867 40.5273V41.5273ZM62.4805 40.8828L63.1812 41.5963C63.8088 40.9799 64.1367 40.2038 64.1367 39.3242H63.1367H62.1367C62.1367 39.6633 62.0272 39.9264 61.7798 40.1694L62.4805 40.8828ZM63.1367 39.3242H64.1367V32.0234H63.1367H62.1367V39.3242H63.1367ZM63.1367 32.0234H64.1367C64.1367 31.1399 63.8115 30.3588 63.1812 29.7397L62.4805 30.4531L61.7798 31.1666C62.0244 31.4069 62.1367 31.6726 62.1367 32.0234H63.1367ZM62.4805 30.4531L63.1876 29.746C62.5604 29.1189 61.7739 28.7969 60.8867 28.7969V29.7969V30.7969C61.2495 30.7969 61.5255 30.9124 61.7734 31.1602L62.4805 30.4531ZM60.8867 29.7969V28.7969H54.5V29.7969V30.7969H60.8867V29.7969ZM54.5 29.7969H53.5V41.5273H54.5H55.5V29.7969H54.5ZM54.5 41.5273V42.5273H60.8867V41.5273V40.5273H54.5V41.5273ZM73.4375 27.3359V26.3359H72.7333L72.496 26.9989L73.4375 27.3359ZM76.5195 27.3359L77.461 26.9989L77.2237 26.3359H76.5195V27.3359ZM82.4844 44V45H83.9044L83.4259 43.663L82.4844 44ZM79.8477 44L78.9074 44.3405L79.1462 45H79.8477V44ZM78.0312 38.9844L78.9715 38.6439L78.7327 37.9844H78.0312V38.9844ZM73.3789 38.9844L72.4386 38.6441L71.9535 39.9844H73.3789V38.9844ZM74.2695 36.5234V35.5234H73.568L73.3292 36.1831L74.2695 36.5234ZM77.1406 36.5234V37.5234H78.5664L78.0808 36.1829L77.1406 36.5234ZM74.9844 30.5703L75.9246 30.2298L74.9854 27.6368L74.0444 30.2291L74.9844 30.5703ZM70.1094 44V45H70.8102L71.0494 44.3412L70.1094 44ZM67.4727 44L66.5312 43.663L66.0526 45H67.4727V44ZM73.4375 27.3359V28.3359H76.5195V27.3359V26.3359H73.4375V27.3359ZM76.5195 27.3359L75.578 27.6729L81.5429 44.337L82.4844 44L83.4259 43.663L77.461 26.9989L76.5195 27.3359ZM82.4844 44V43H79.8477V44V45H82.4844V44ZM79.8477 44L80.7879 43.6595L78.9715 38.6439L78.0312 38.9844L77.091 39.3249L78.9074 44.3405L79.8477 44ZM78.0312 38.9844V37.9844H73.3789V38.9844V39.9844H78.0312V38.9844ZM73.3789 38.9844L74.3192 39.3247L75.2098 36.8637L74.2695 36.5234L73.3292 36.1831L72.4386 38.6441L73.3789 38.9844ZM74.2695 36.5234V37.5234H77.1406V36.5234V35.5234H74.2695V36.5234ZM77.1406 36.5234L78.0808 36.1829L75.9246 30.2298L74.9844 30.5703L74.0442 30.9109L76.2004 36.864L77.1406 36.5234ZM74.9844 30.5703L74.0444 30.2291L69.1694 43.6588L70.1094 44L71.0494 44.3412L75.9244 30.9115L74.9844 30.5703ZM70.1094 44V43H67.4727V44V45H70.1094V44ZM67.4727 44L68.4142 44.337L74.379 27.6729L73.4375 27.3359L72.496 26.9989L66.5312 43.663L67.4727 44ZM11.9844 55.3359V54.3359H10.9844V55.3359H11.9844ZM14.4453 55.3359H15.4453V54.3359H14.4453V55.3359ZM24.8984 69.5391H25.8984V68.5391H24.8984V69.5391ZM24.8984 72V73H25.8984V72H24.8984ZM14.293 71.3789L13.7784 72.2365L13.7897 72.243L14.293 71.3789ZM12.6055 69.6914L11.7413 70.1947L11.748 70.2059L12.6055 69.6914ZM11.9844 55.3359V56.3359H14.4453V55.3359V54.3359H11.9844V55.3359ZM14.4453 55.3359H13.4453V67.3359H14.4453H15.4453V55.3359H14.4453ZM14.4453 67.3359H13.4453C13.4453 68.2097 13.7649 68.9838 14.3827 69.6016L15.0898 68.8945L15.797 68.1874C15.5554 67.9459 15.4453 67.6809 15.4453 67.3359H14.4453ZM15.0898 68.8945L14.3827 69.6016C14.9978 70.2167 15.7669 70.5391 16.6367 70.5391V69.5391V68.5391C16.3034 68.5391 16.0412 68.4317 15.797 68.1874L15.0898 68.8945ZM16.6367 69.5391V70.5391H24.8984V69.5391V68.5391H16.6367V69.5391ZM24.8984 69.5391H23.8984V72H24.8984H25.8984V69.5391H24.8984ZM24.8984 72V71H16.6367V72V73H24.8984V72ZM16.6367 72V71C15.9555 71 15.3489 70.8366 14.7962 70.5148L14.293 71.3789L13.7897 72.243C14.6589 72.7493 15.6148 73 16.6367 73V72ZM14.293 71.3789L14.8075 70.5214C14.2451 70.184 13.8004 69.7393 13.463 69.1769L12.6055 69.6914L11.748 70.2059C12.2543 71.0498 12.9346 71.7301 13.7785 72.2364L14.293 71.3789ZM12.6055 69.6914L13.4696 69.1881C13.1486 68.6369 12.9844 68.0267 12.9844 67.3359H11.9844H10.9844C10.9844 68.3639 11.2342 69.324 11.7413 70.1947L12.6055 69.6914ZM11.9844 67.3359H12.9844V55.3359H11.9844H10.9844V67.3359H11.9844ZM27.0078 55.3359V54.3359H26.0078V55.3359H27.0078ZM39.9336 55.3359H40.9336V54.3359H39.9336V55.3359ZM39.9336 57.7969V58.7969H40.9336V57.7969H39.9336ZM29.4805 57.7969V56.7969H28.4805V57.7969H29.4805ZM29.4805 69.5273H28.4805V70.5273H29.4805V69.5273ZM39.9336 69.5273H40.9336V68.5273H39.9336V69.5273ZM39.9336 72V73H40.9336V72H39.9336ZM27.0078 72H26.0078V73H27.0078V72ZM30.8867 62.0977V61.0977H29.8867V62.0977H30.8867ZM39.9336 62.0977H40.9336V61.0977H39.9336V62.0977ZM39.9336 64.5586V65.5586H40.9336V64.5586H39.9336ZM30.8867 64.5586H29.8867V65.5586H30.8867V64.5586ZM27.0078 55.3359V56.3359H39.9336V55.3359V54.3359H27.0078V55.3359ZM39.9336 55.3359H38.9336V57.7969H39.9336H40.9336V55.3359H39.9336ZM39.9336 57.7969V56.7969H29.4805V57.7969V58.7969H39.9336V57.7969ZM29.4805 57.7969H28.4805V69.5273H29.4805H30.4805V57.7969H29.4805ZM29.4805 69.5273V70.5273H39.9336V69.5273V68.5273H29.4805V69.5273ZM39.9336 69.5273H38.9336V72H39.9336H40.9336V69.5273H39.9336ZM39.9336 72V71H27.0078V72V73H39.9336V72ZM27.0078 72H28.0078V55.3359H27.0078H26.0078V72H27.0078ZM30.8867 62.0977V63.0977H39.9336V62.0977V61.0977H30.8867V62.0977ZM39.9336 62.0977H38.9336V64.5586H39.9336H40.9336V62.0977H39.9336ZM39.9336 64.5586V63.5586H30.8867V64.5586V65.5586H39.9336V64.5586ZM30.8867 64.5586H31.8867V62.0977H30.8867H29.8867V64.5586H30.8867ZM47.7852 55.3359V54.3359H47.081L46.8437 54.9989L47.7852 55.3359ZM50.8672 55.3359L51.8087 54.9989L51.5714 54.3359H50.8672V55.3359ZM56.832 72V73H58.2521L57.7735 71.663L56.832 72ZM54.1953 72L53.2551 72.3405L53.4939 73H54.1953V72ZM52.3789 66.9844L53.3191 66.6439L53.0803 65.9844H52.3789V66.9844ZM47.7266 66.9844L46.7862 66.6441L46.3012 67.9844H47.7266V66.9844ZM48.6172 64.5234V63.5234H47.9156L47.6769 64.1831L48.6172 64.5234ZM51.4883 64.5234V65.5234H52.9141L52.4285 64.1829L51.4883 64.5234ZM49.332 58.5703L50.2723 58.2298L49.3331 55.6368L48.392 58.2291L49.332 58.5703ZM44.457 72V73H45.1579L45.397 72.3412L44.457 72ZM41.8203 72L40.8788 71.663L40.4002 73H41.8203V72ZM47.7852 55.3359V56.3359H50.8672V55.3359V54.3359H47.7852V55.3359ZM50.8672 55.3359L49.9257 55.6729L55.8905 72.337L56.832 72L57.7735 71.663L51.8087 54.9989L50.8672 55.3359ZM56.832 72V71H54.1953V72V73H56.832V72ZM54.1953 72L55.1356 71.6595L53.3191 66.6439L52.3789 66.9844L51.4387 67.3249L53.2551 72.3405L54.1953 72ZM52.3789 66.9844V65.9844H47.7266V66.9844V67.9844H52.3789V66.9844ZM47.7266 66.9844L48.6669 67.3247L49.5575 64.8637L48.6172 64.5234L47.6769 64.1831L46.7862 66.6441L47.7266 66.9844ZM48.6172 64.5234V65.5234H51.4883V64.5234V63.5234H48.6172V64.5234ZM51.4883 64.5234L52.4285 64.1829L50.2723 58.2298L49.332 58.5703L48.3918 58.9109L50.5481 64.864L51.4883 64.5234ZM49.332 58.5703L48.392 58.2291L43.517 71.6588L44.457 72L45.397 72.3412L50.272 58.9115L49.332 58.5703ZM44.457 72V71H41.8203V72V73H44.457V72ZM41.8203 72L42.7618 72.337L48.7267 55.6729L47.7852 55.3359L46.8437 54.9989L40.8788 71.663L41.8203 72ZM58.9531 55.3359V54.3359H57.9531V55.3359H58.9531ZM69.8281 55.8984L69.3089 56.7531L69.3152 56.7569L69.3216 56.7607L69.8281 55.8984ZM71.3164 57.375L70.457 57.8863L70.4618 57.8943L71.3164 57.375ZM71.3281 63.1523L70.4716 62.6362L70.4668 62.6444L71.3281 63.1523ZM67.7539 65.1445V64.1445H65.7941L66.9442 65.7314L67.7539 65.1445ZM72.7227 72V73H74.6825L73.5323 71.4131L72.7227 72ZM69.7109 72L68.9012 72.5869L69.2007 73H69.7109V72ZM64.7422 65.1445L65.5519 64.5577L65.2524 64.1445H64.7422V65.1445ZM62.832 65.1445H61.832V66.1445H62.832V65.1445ZM62.832 62.6836V61.6836H61.832V62.6836H62.832ZM68.9375 62.2148L69.6359 62.9307L69.6446 62.922L68.9375 62.2148ZM61.4258 57.7969V56.7969H60.4258V57.7969H61.4258ZM61.4258 72V73H62.4258V72H61.4258ZM58.9531 72H57.9531V73H58.9531V72ZM58.9531 55.3359V56.3359H67.7656V55.3359V54.3359H58.9531V55.3359ZM67.7656 55.3359V56.3359C68.3497 56.3359 68.8561 56.4779 69.3089 56.7531L69.8281 55.8984L70.3474 55.0438C69.5658 54.5689 68.6971 54.3359 67.7656 54.3359V55.3359ZM69.8281 55.8984L69.3216 56.7607C69.8027 57.0433 70.1768 57.4154 70.457 57.8863L71.3164 57.375L72.1758 56.8637C71.7216 56.1003 71.1036 55.4879 70.3347 55.0362L69.8281 55.8984ZM71.3164 57.375L70.4618 57.8943C70.7369 58.3471 70.8789 58.8534 70.8789 59.4375H71.8789H72.8789C72.8789 58.506 72.6459 57.6373 72.171 56.8557L71.3164 57.375ZM71.8789 59.4375H70.8789V61.1016H71.8789H72.8789V59.4375H71.8789ZM71.8789 61.1016H70.8789C70.8789 61.6898 70.7388 62.1929 70.4716 62.6362L71.3281 63.1523L72.1846 63.6685C72.6519 62.8931 72.8789 62.0289 72.8789 61.1016H71.8789ZM71.3281 63.1523L70.4668 62.6444C70.197 63.1018 69.8311 63.4637 69.3531 63.7386L69.8516 64.6055L70.35 65.4724C71.122 65.0285 71.7405 64.4217 72.1895 63.6603L71.3281 63.1523ZM69.8516 64.6055L69.3531 63.7386C68.8908 64.0044 68.3656 64.1445 67.7539 64.1445V65.1445V66.1445C68.6891 66.1445 69.5624 65.9253 70.35 65.4724L69.8516 64.6055ZM67.7539 65.1445L66.9442 65.7314L71.913 72.5869L72.7227 72L73.5323 71.4131L68.5636 64.5577L67.7539 65.1445ZM72.7227 72V71H69.7109V72V73H72.7227V72ZM69.7109 72L70.5206 71.4131L65.5519 64.5577L64.7422 65.1445L63.9325 65.7314L68.9012 72.5869L69.7109 72ZM64.7422 65.1445V64.1445H62.832V65.1445V66.1445H64.7422V65.1445ZM62.832 65.1445H63.832V62.6836H62.832H61.832V65.1445H62.832ZM62.832 62.6836V63.6836H67.7656V62.6836V61.6836H62.832V62.6836ZM67.7656 62.6836V63.6836C68.4788 63.6836 69.1226 63.4314 69.6358 62.9306L68.9375 62.2148L68.2392 61.4991C68.1118 61.6233 67.9743 61.6836 67.7656 61.6836V62.6836ZM68.9375 62.2148L69.6446 62.922C70.1488 62.4177 70.418 61.782 70.418 61.0664H69.418H68.418C68.418 61.2414 68.3668 61.3713 68.2304 61.5077L68.9375 62.2148ZM69.418 61.0664H70.418V59.4375H69.418H68.418V61.0664H69.418ZM69.418 59.4375H70.418C70.418 58.7192 70.1525 58.0781 69.6446 57.5702L68.9375 58.2773L68.2304 58.9845C68.3631 59.1172 68.418 59.2495 68.418 59.4375H69.418ZM68.9375 58.2773L69.6446 57.5702C69.1331 57.0587 68.4866 56.7969 67.7656 56.7969V57.7969V58.7969C67.9666 58.7969 68.1013 58.8553 68.2304 58.9845L68.9375 58.2773ZM67.7656 57.7969V56.7969H61.4258V57.7969V58.7969H67.7656V57.7969ZM61.4258 57.7969H60.4258V72H61.4258H62.4258V57.7969H61.4258ZM61.4258 72V71H58.9531V72V73H61.4258V72ZM58.9531 72H59.9531V55.3359H58.9531H57.9531V72H58.9531ZM75.0781 55.3359V54.3359H74.0781V55.3359H75.0781ZM78.2891 55.3359L79.1637 54.8512L78.8782 54.3359H78.2891V55.3359ZM85.543 68.4258L84.6683 68.9105L86.543 72.2934V68.4258H85.543ZM85.543 55.3359V54.3359H84.543V55.3359H85.543ZM88.0156 55.3359H89.0156V54.3359H88.0156V55.3359ZM88.0156 72V73H89.0156V72H88.0156ZM84.8047 72L83.9328 72.4897L84.2194 73H84.8047V72ZM77.5508 59.0859L78.4227 58.5962L76.5508 55.2637V59.0859H77.5508ZM77.5508 72V73H78.5508V72H77.5508ZM75.0781 72H74.0781V73H75.0781V72ZM75.0781 55.3359V56.3359H78.2891V55.3359V54.3359H75.0781V55.3359ZM78.2891 55.3359L77.4144 55.8206L84.6683 68.9105L85.543 68.4258L86.4176 67.9411L79.1637 54.8512L78.2891 55.3359ZM85.543 68.4258H86.543V55.3359H85.543H84.543V68.4258H85.543ZM85.543 55.3359V56.3359H88.0156V55.3359V54.3359H85.543V55.3359ZM88.0156 55.3359H87.0156V72H88.0156H89.0156V55.3359H88.0156ZM88.0156 72V71H84.8047V72V73H88.0156V72ZM84.8047 72L85.6766 71.5103L78.4227 58.5962L77.5508 59.0859L76.6789 59.5757L83.9328 72.4897L84.8047 72ZM77.5508 59.0859H76.5508V72H77.5508H78.5508V59.0859H77.5508ZM77.5508 72V71H75.0781V72V73H77.5508V72ZM75.0781 72H76.0781V55.3359H75.0781H74.0781V72H75.0781Z" fill="black" mask="url(#path-2-outside-1_4_7)"/>
<defs>
<filter id="filter0_i_4_7" x="10.9844" y="26.3359" width="118.031" height="86.6641" filterUnits="userSpaceOnUse" color-interpolation-filters="sRGB">
<feFlood flood-opacity="0" result="BackgroundImageFix"/>
<feBlend mode="normal" in="SourceGraphic" in2="BackgroundImageFix" result="shape"/>
<feColorMatrix in="SourceAlpha" type="matrix" values="0 0 0 0 0 0 0 0 0 0 0 0 0 0 0 0 0 0 127 0" result="hardAlpha"/>
<feOffset dx="100" dy="40"/>
<feGaussianBlur stdDeviation="20"/>
<feComposite in2="hardAlpha" operator="arithmetic" k2="-1" k3="1"/>
<feColorMatrix type="matrix" values="0 0 0 0 0 0 0 0 0 0.933333 0 0 0 0 1 0 0 0 0.25 0"/>
<feBlend mode="normal" in2="shape" result="effect1_innerShadow_4_7"/>
</filter>
<linearGradient id="paint0_linear_4_7" x1="28.3204" y1="14.2889" x2="89.1566" y2="64.8946" gradientUnits="userSpaceOnUse">
<stop offset="0.412267" stop-color="#6C31F4"/>
<stop offset="0.501992" stop-color="#9067F3"/>
<stop offset="0.588573" stop-color="#A985FF"/>
<stop offset="0.644342" stop-color="#AC94F1"/>
</linearGradient>
</defs>
</svg>
