<svg width="33" height="35" viewBox="0 0 33 35" fill="none" xmlns="http://www.w3.org/2000/svg">
<path d="M16 0C24.8366 0 32 7.16344 32 16C32 24.8366 24.8366 32 16 32C7.16344 32 0 24.8366 0 16C0 7.16344 7.16344 0 16 0Z" fill="black"/>
<mask id="path-2-outside-1_4_7" maskUnits="userSpaceOnUse" x="5" y="7" width="25" height="15" fill="black">
<rect fill="white" x="5" y="7" width="25" height="15"/>
<path d="M6.44918 8.50195H13.0322C13.6123 8.50195 14.1367 8.63965 14.6054 8.91504C15.0742 9.19043 15.4462 9.55957 15.7216 10.0225C16.0029 10.4854 16.1435 11.0039 16.1435 11.5781V12.3955C16.1435 13.21 15.9091 13.8281 15.4404 14.25C15.8564 14.5195 16.1582 14.8418 16.3457 15.2168C16.5332 15.5859 16.6269 16.0488 16.6269 16.6055V17.9854C16.6269 18.5361 16.4863 19.04 16.205 19.4971C15.9296 19.9541 15.5576 20.3203 15.0888 20.5957C14.6201 20.8652 14.1015 21 13.5332 21H6.44918V8.50195ZM13.5507 19.1455C13.8906 19.1455 14.1806 19.0312 14.4209 18.8027C14.6611 18.5684 14.7812 18.2871 14.7812 17.959V16.5791C14.7812 16.251 14.6611 15.9697 14.4209 15.7354C14.1806 15.501 13.8877 15.3838 13.542 15.3838H9.35836V13.5381H13.0322C13.3779 13.5381 13.6738 13.4268 13.9199 13.2041C14.1718 12.9756 14.2978 12.7002 14.2978 12.3779V11.5781C14.2978 11.2383 14.1718 10.9482 13.9199 10.708C13.6738 10.4678 13.3779 10.3477 13.0322 10.3477H8.30367V19.1455H13.5507ZM18.8242 8.50195H20.6699V17.502C20.6699 17.959 20.831 18.3486 21.1533 18.6709C21.4755 18.9932 21.8623 19.1543 22.3134 19.1543H28.5097V21H22.3134C21.6748 21 21.0888 20.8447 20.5556 20.5342C20.0283 20.2178 19.6064 19.7959 19.29 19.2686C18.9795 18.7354 18.8242 18.1465 18.8242 17.502V8.50195Z"/>
</mask>
<g filter="url(#filter0_i_4_7)">
<path d="M6.44918 8.50195H13.0322C13.6123 8.50195 14.1367 8.63965 14.6054 8.91504C15.0742 9.19043 15.4462 9.55957 15.7216 10.0225C16.0029 10.4854 16.1435 11.0039 16.1435 11.5781V12.3955C16.1435 13.21 15.9091 13.8281 15.4404 14.25C15.8564 14.5195 16.1582 14.8418 16.3457 15.2168C16.5332 15.5859 16.6269 16.0488 16.6269 16.6055V17.9854C16.6269 18.5361 16.4863 19.04 16.205 19.4971C15.9296 19.9541 15.5576 20.3203 15.0888 20.5957C14.6201 20.8652 14.1015 21 13.5332 21H6.44918V8.50195ZM13.5507 19.1455C13.8906 19.1455 14.1806 19.0312 14.4209 18.8027C14.6611 18.5684 14.7812 18.2871 14.7812 17.959V16.5791C14.7812 16.251 14.6611 15.9697 14.4209 15.7354C14.1806 15.501 13.8877 15.3838 13.542 15.3838H9.35836V13.5381H13.0322C13.3779 13.5381 13.6738 13.4268 13.9199 13.2041C14.1718 12.9756 14.2978 12.7002 14.2978 12.3779V11.5781C14.2978 11.2383 14.1718 10.9482 13.9199 10.708C13.6738 10.4678 13.3779 10.3477 13.0322 10.3477H8.30367V19.1455H13.5507ZM18.8242 8.50195H20.6699V17.502C20.6699 17.959 20.831 18.3486 21.1533 18.6709C21.4755 18.9932 21.8623 19.1543 22.3134 19.1543H28.5097V21H22.3134C21.6748 21 21.0888 20.8447 20.5556 20.5342C20.0283 20.2178 19.6064 19.7959 19.29 19.2686C18.9795 18.7354 18.8242 18.1465 18.8242 17.502V8.50195Z" fill="url(#paint0_linear_4_7)"/>
</g>
<path d="M6.44918 8.50195V7.50195H5.44918V8.50195H6.44918ZM15.7216 10.0225L14.8622 10.5338L14.867 10.5417L15.7216 10.0225ZM15.4404 14.25L14.7714 13.5067L13.8014 14.3797L14.8966 15.0893L15.4404 14.25ZM16.3457 15.2168L15.4512 15.664L15.4541 15.6697L16.3457 15.2168ZM16.205 19.4971L15.3533 18.9729L15.3485 18.981L16.205 19.4971ZM15.0888 20.5957L15.5873 21.4626L15.5954 21.4579L15.0888 20.5957ZM6.44918 21H5.44918V22H6.44918V21ZM14.4209 18.8027L15.1101 19.5274L15.1192 19.5185L14.4209 18.8027ZM9.35836 15.3838H8.35836V16.3838H9.35836V15.3838ZM9.35836 13.5381V12.5381H8.35836V13.5381H9.35836ZM13.9199 13.2041L14.5908 13.9456L14.5917 13.9448L13.9199 13.2041ZM13.9199 10.708L13.2213 11.4236L13.2298 11.4317L13.9199 10.708ZM8.30367 10.3477V9.34766H7.30367V10.3477H8.30367ZM8.30367 19.1455H7.30367V20.1455H8.30367V19.1455ZM6.44918 8.50195V9.50195H13.0322V8.50195V7.50195H6.44918V8.50195ZM13.0322 8.50195V9.50195C13.4465 9.50195 13.794 9.59815 14.0989 9.77725L14.6054 8.91504L15.112 8.05283C14.4793 7.68115 13.778 7.50195 13.0322 7.50195V8.50195ZM14.6054 8.91504L14.0989 9.77725C14.4237 9.96811 14.6739 10.2171 14.8622 10.5338L15.7216 10.0225L16.581 9.51117C16.2186 8.90203 15.7246 8.41275 15.112 8.05283L14.6054 8.91504ZM15.7216 10.0225L14.867 10.5417C15.0474 10.8386 15.1435 11.1756 15.1435 11.5781H16.1435H17.1435C17.1435 10.8323 16.9584 10.1321 16.5763 9.5032L15.7216 10.0225ZM16.1435 11.5781H15.1435V12.3955H16.1435H17.1435V11.5781H16.1435ZM16.1435 12.3955H15.1435C15.1435 13.0143 14.972 13.3262 14.7714 13.5067L15.4404 14.25L16.1094 14.9933C16.8463 14.3301 17.1435 13.4056 17.1435 12.3955H16.1435ZM15.4404 14.25L14.8966 15.0893C15.1904 15.2796 15.357 15.4756 15.4512 15.664L16.3457 15.2168L17.2401 14.7696C16.9593 14.208 16.5224 13.7595 15.9841 13.4107L15.4404 14.25ZM16.3457 15.2168L15.4541 15.6697C15.5501 15.8587 15.6269 16.1545 15.6269 16.6055H16.6269H17.6269C17.6269 15.9432 17.5162 15.3132 17.2372 14.7639L16.3457 15.2168ZM16.6269 16.6055H15.6269V17.9854H16.6269H17.6269V16.6055H16.6269ZM16.6269 17.9854H15.6269C15.6269 18.3562 15.535 18.6779 15.3534 18.973L16.205 19.4971L17.0567 20.0212C17.4376 19.4022 17.6269 18.7161 17.6269 17.9854H16.6269ZM16.205 19.4971L15.3485 18.981C15.1608 19.2925 14.9102 19.5408 14.5823 19.7335L15.0888 20.5957L15.5954 21.4579C16.205 21.0998 16.6985 20.6157 17.0616 20.0132L16.205 19.4971ZM15.0888 20.5957L14.5904 19.7288C14.2811 19.9066 13.9359 20 13.5332 20V21V22C14.2672 22 14.959 21.8239 15.5873 21.4626L15.0888 20.5957ZM13.5332 21V20H6.44918V21V22H13.5332V21ZM6.44918 21H7.44918V8.50195H6.44918H5.44918V21H6.44918ZM13.5507 19.1455V20.1455C14.14 20.1455 14.6788 19.9375 15.1101 19.5273L14.4209 18.8027L13.7316 18.0782C13.6824 18.125 13.6411 18.1455 13.5507 18.1455V19.1455ZM14.4209 18.8027L15.1192 19.5185C15.5474 19.1008 15.7812 18.5635 15.7812 17.959H14.7812H13.7812C13.7812 17.998 13.7747 18.0156 13.7715 18.0233C13.768 18.0313 13.7576 18.0528 13.7225 18.087L14.4209 18.8027ZM14.7812 17.959H15.7812V16.5791H14.7812H13.7812V17.959H14.7812ZM14.7812 16.5791H15.7812C15.7812 15.9746 15.5474 15.4373 15.1192 15.0196L14.4209 15.7354L13.7225 16.4511C13.7576 16.4853 13.768 16.5067 13.7715 16.5148C13.7747 16.5225 13.7812 16.5401 13.7812 16.5791H14.7812ZM14.4209 15.7354L15.1192 15.0196C14.686 14.597 14.1399 14.3838 13.542 14.3838V15.3838V16.3838C13.6354 16.3838 13.6752 16.405 13.7225 16.4511L14.4209 15.7354ZM13.542 15.3838V14.3838H9.35836V15.3838V16.3838H13.542V15.3838ZM9.35836 15.3838H10.3584V13.5381H9.35836H8.35836V15.3838H9.35836ZM9.35836 13.5381V14.5381H13.0322V13.5381V12.5381H9.35836V13.5381ZM13.0322 13.5381V14.5381C13.6145 14.5381 14.1526 14.3421 14.5908 13.9456L13.9199 13.2041L13.249 12.4626C13.195 12.5114 13.1413 12.5381 13.0322 12.5381V13.5381ZM13.9199 13.2041L14.5917 13.9448C15.0396 13.5386 15.2978 12.9995 15.2978 12.3779H14.2978H13.2978C13.2978 12.393 13.2964 12.4013 13.2957 12.4046C13.295 12.4077 13.2945 12.409 13.294 12.4102C13.2939 12.4103 13.286 12.4289 13.2481 12.4634L13.9199 13.2041ZM14.2978 12.3779H15.2978V11.5781H14.2978H13.2978V12.3779H14.2978ZM14.2978 11.5781H15.2978C15.2978 10.9574 15.0544 10.408 14.61 9.98427L13.9199 10.708L13.2298 11.4317C13.2893 11.4885 13.2978 11.5192 13.2978 11.5781H14.2978ZM13.9199 10.708L14.6184 9.99243C14.1844 9.56879 13.6374 9.34766 13.0322 9.34766V10.3477V11.3477C13.1184 11.3477 13.1631 11.3668 13.2213 11.4236L13.9199 10.708ZM13.0322 10.3477V9.34766H8.30367V10.3477V11.3477H13.0322V10.3477ZM8.30367 10.3477H7.30367V19.1455H8.30367H9.30367V10.3477H8.30367ZM8.30367 19.1455V20.1455H13.5507V19.1455V18.1455H8.30367V19.1455ZM18.8242 8.50195V7.50195H17.8242V8.50195H18.8242ZM20.6699 8.50195H21.6699V7.50195H20.6699V8.50195ZM28.5097 19.1543H29.5097V18.1543H28.5097V19.1543ZM28.5097 21V22H29.5097V21H28.5097ZM20.5556 20.5342L20.0411 21.3917L20.0523 21.3983L20.5556 20.5342ZM19.29 19.2686L18.4258 19.7719L18.4325 19.7831L19.29 19.2686ZM18.8242 8.50195V9.50195H20.6699V8.50195V7.50195H18.8242V8.50195ZM20.6699 8.50195H19.6699V17.502H20.6699H21.6699V8.50195H20.6699ZM20.6699 17.502H19.6699C19.6699 18.2234 19.9358 18.8676 20.4462 19.378L21.1533 18.6709L21.8604 17.9638C21.7262 17.8297 21.6699 17.6946 21.6699 17.502H20.6699ZM21.1533 18.6709L20.4462 19.378C20.9538 19.8857 21.594 20.1543 22.3134 20.1543V19.1543V18.1543C22.1305 18.1543 21.9973 18.1007 21.8604 17.9638L21.1533 18.6709ZM22.3134 19.1543V20.1543H28.5097V19.1543V18.1543H22.3134V19.1543ZM28.5097 19.1543H27.5097V21H28.5097H29.5097V19.1543H28.5097ZM28.5097 21V20H22.3134V21V22H28.5097V21ZM22.3134 21V20C21.8451 20 21.4338 19.8884 21.0589 19.6701L20.5556 20.5342L20.0523 21.3983C20.7438 21.801 21.5044 22 22.3134 22V21ZM20.5556 20.5342L21.0701 19.6767C20.6835 19.4447 20.3794 19.1407 20.1475 18.7541L19.29 19.2686L18.4325 19.7831C18.8334 20.4511 19.373 20.9908 20.0411 21.3917L20.5556 20.5342ZM19.29 19.2686L20.1541 18.7653C19.9366 18.3918 19.8242 17.9779 19.8242 17.502H18.8242H17.8242C17.8242 18.3151 18.0223 19.0789 18.4259 19.7718L19.29 19.2686ZM18.8242 17.502H19.8242V8.50195H18.8242H17.8242V17.502H18.8242Z" fill="black" mask="url(#path-2-outside-1_4_7)"/>
<defs>
<filter id="filter0_i_4_7" x="5.44917" y="7.50195" width="24.0606" height="14.498" filterUnits="userSpaceOnUse" color-interpolation-filters="sRGB">
<feFlood flood-opacity="0" result="BackgroundImageFix"/>
<feBlend mode="normal" in="SourceGraphic" in2="BackgroundImageFix" result="shape"/>
<feColorMatrix in="SourceAlpha" type="matrix" values="0 0 0 0 0 0 0 0 0 0 0 0 0 0 0 0 0 0 127 0" result="hardAlpha"/>
<feOffset dx="100" dy="40"/>
<feGaussianBlur stdDeviation="20"/>
<feComposite in2="hardAlpha" operator="arithmetic" k2="-1" k3="1"/>
<feColorMatrix type="matrix" values="0 0 0 0 0 0 0 0 0 0.933333 0 0 0 0 1 0 0 0 0.25 0"/>
<feBlend mode="normal" in2="shape" result="effect1_innerShadow_4_7"/>
</filter>
<linearGradient id="paint0_linear_4_7" x1="10.1025" y1="3.29246" x2="29.5701" y2="19.4863" gradientUnits="userSpaceOnUse">
<stop offset="0.412267" stop-color="#6C31F4"/>
<stop offset="0.501992" stop-color="#9067F3"/>
<stop offset="0.588573" stop-color="#A985FF"/>
<stop offset="0.644342" stop-color="#AC94F1"/>
</linearGradient>
</defs>
</svg>
