<svg width="32" height="19" viewBox="0 0 32 19" fill="none" xmlns="http://www.w3.org/2000/svg">
<mask id="path-1-outside-1_3_2" maskUnits="userSpaceOnUse" x="-0.378906" y="-0.335938" width="32" height="19" fill="black">
<rect fill="white" x="-0.378906" y="-0.335938" width="32" height="19"/>
<path d="M1 1H9.77734C10.5508 1 11.25 1.18359 11.875 1.55078C12.5 1.91797 12.9961 2.41016 13.3633 3.02734C13.7383 3.64453 13.9258 4.33594 13.9258 5.10156V6.19141C13.9258 7.27734 13.6133 8.10156 12.9883 8.66406C13.543 9.02344 13.9453 9.45312 14.1953 9.95312C14.4453 10.4453 14.5703 11.0625 14.5703 11.8047V13.6445C14.5703 14.3789 14.3828 15.0508 14.0078 15.6602C13.6406 16.2695 13.1445 16.7578 12.5195 17.125C11.8945 17.4844 11.2031 17.6641 10.4453 17.6641H1V1ZM10.4688 15.1914C10.9219 15.1914 11.3086 15.0391 11.6289 14.7344C11.9492 14.4219 12.1094 14.0469 12.1094 13.6094V11.7695C12.1094 11.332 11.9492 10.957 11.6289 10.6445C11.3086 10.332 10.918 10.1758 10.457 10.1758H4.87891V7.71484H9.77734C10.2383 7.71484 10.6328 7.56641 10.9609 7.26953C11.2969 6.96484 11.4648 6.59766 11.4648 6.16797V5.10156C11.4648 4.64844 11.2969 4.26172 10.9609 3.94141C10.6328 3.62109 10.2383 3.46094 9.77734 3.46094H3.47266V15.1914H10.4688ZM17.5 1H19.9609V13C19.9609 13.6094 20.1758 14.1289 20.6055 14.5586C21.0352 14.9883 21.5508 15.2031 22.1523 15.2031H30.4141V17.6641H22.1523C21.3008 17.6641 20.5195 17.457 19.8086 17.043C19.1055 16.6211 18.543 16.0586 18.1211 15.3555C17.707 14.6445 17.5 13.8594 17.5 13V1Z"/>
</mask>
<g filter="url(#filter0_i_3_2)">
<path d="M1 1H9.77734C10.5508 1 11.25 1.18359 11.875 1.55078C12.5 1.91797 12.9961 2.41016 13.3633 3.02734C13.7383 3.64453 13.9258 4.33594 13.9258 5.10156V6.19141C13.9258 7.27734 13.6133 8.10156 12.9883 8.66406C13.543 9.02344 13.9453 9.45312 14.1953 9.95312C14.4453 10.4453 14.5703 11.0625 14.5703 11.8047V13.6445C14.5703 14.3789 14.3828 15.0508 14.0078 15.6602C13.6406 16.2695 13.1445 16.7578 12.5195 17.125C11.8945 17.4844 11.2031 17.6641 10.4453 17.6641H1V1ZM10.4688 15.1914C10.9219 15.1914 11.3086 15.0391 11.6289 14.7344C11.9492 14.4219 12.1094 14.0469 12.1094 13.6094V11.7695C12.1094 11.332 11.9492 10.957 11.6289 10.6445C11.3086 10.332 10.918 10.1758 10.457 10.1758H4.87891V7.71484H9.77734C10.2383 7.71484 10.6328 7.56641 10.9609 7.26953C11.2969 6.96484 11.4648 6.59766 11.4648 6.16797V5.10156C11.4648 4.64844 11.2969 4.26172 10.9609 3.94141C10.6328 3.62109 10.2383 3.46094 9.77734 3.46094H3.47266V15.1914H10.4688ZM17.5 1H19.9609V13C19.9609 13.6094 20.1758 14.1289 20.6055 14.5586C21.0352 14.9883 21.5508 15.2031 22.1523 15.2031H30.4141V17.6641H22.1523C21.3008 17.6641 20.5195 17.457 19.8086 17.043C19.1055 16.6211 18.543 16.0586 18.1211 15.3555C17.707 14.6445 17.5 13.8594 17.5 13V1Z" fill="url(#paint0_linear_3_2)"/>
</g>
<path d="M1 1V0H0V1H1ZM13.3633 3.02734L12.5038 3.53866L12.5087 3.5466L13.3633 3.02734ZM12.9883 8.66406L12.3193 7.92077L11.3493 8.79375L12.4445 9.50331L12.9883 8.66406ZM14.1953 9.95312L13.3009 10.4003L13.3037 10.406L14.1953 9.95312ZM14.0078 15.6602L13.1561 15.136L13.1513 15.144L14.0078 15.6602ZM12.5195 17.125L13.018 17.9919L13.0261 17.9872L12.5195 17.125ZM1 17.6641H0V18.6641H1V17.6641ZM11.6289 14.7344L12.3182 15.459L12.3272 15.4502L11.6289 14.7344ZM4.87891 10.1758H3.87891V11.1758H4.87891V10.1758ZM4.87891 7.71484V6.71484H3.87891V7.71484H4.87891ZM10.9609 7.26953L11.6319 8.01107L11.6328 8.01025L10.9609 7.26953ZM10.9609 3.94141L10.2624 4.65703L10.2709 4.66514L10.9609 3.94141ZM3.47266 3.46094V2.46094H2.47266V3.46094H3.47266ZM3.47266 15.1914H2.47266V16.1914H3.47266V15.1914ZM1 1V2H9.77734V1V0H1V1ZM9.77734 1V2C10.3851 2 10.9073 2.14209 11.3685 2.41299L11.875 1.55078L12.3815 0.68857C11.5927 0.225092 10.7165 0 9.77734 0V1ZM11.875 1.55078L11.3685 2.41299C11.8496 2.69565 12.2237 3.0677 12.5039 3.53864L13.3633 3.02734L14.2227 2.51605C13.7685 1.75261 13.1504 1.14029 12.3815 0.68857L11.875 1.55078ZM13.3633 3.02734L12.5087 3.5466C12.7828 3.99775 12.9258 4.50759 12.9258 5.10156H13.9258H14.9258C14.9258 4.16429 14.6938 3.29131 14.2179 2.50808L13.3633 3.02734ZM13.9258 5.10156H12.9258V6.19141H13.9258H14.9258V5.10156H13.9258ZM13.9258 6.19141H12.9258C12.9258 7.08166 12.6761 7.59963 12.3193 7.92077L12.9883 8.66406L13.6572 9.40736C14.5504 8.6035 14.9258 7.47303 14.9258 6.19141H13.9258ZM12.9883 8.66406L12.4445 9.50331C12.877 9.78347 13.1442 10.0869 13.3009 10.4003L14.1953 9.95312L15.0897 9.50591C14.7464 8.81931 14.209 8.26341 13.532 7.82481L12.9883 8.66406ZM14.1953 9.95312L13.3037 10.406C13.4622 10.718 13.5703 11.1681 13.5703 11.8047H14.5703H15.5703C15.5703 10.9569 15.4284 10.1726 15.0869 9.50026L14.1953 9.95312ZM14.5703 11.8047H13.5703V13.6445H14.5703H15.5703V11.8047H14.5703ZM14.5703 13.6445H13.5703C13.5703 14.199 13.4315 14.6886 13.1562 15.1361L14.0078 15.6602L14.8595 16.1843C15.3341 15.413 15.5703 14.5588 15.5703 13.6445H14.5703ZM14.0078 15.6602L13.1513 15.144C12.8718 15.6079 12.4971 15.9783 12.013 16.2628L12.5195 17.125L13.0261 17.9872C13.7919 17.5373 14.4095 16.9311 14.8643 16.1763L14.0078 15.6602ZM12.5195 17.125L12.0211 16.2581C11.5556 16.5257 11.0375 16.6641 10.4453 16.6641V17.6641V18.6641C11.3688 18.6641 12.2335 18.443 13.018 17.9919L12.5195 17.125ZM10.4453 17.6641V16.6641H1V17.6641V18.6641H10.4453V17.6641ZM1 17.6641H2V1H1H0V17.6641H1ZM10.4688 15.1914V16.1914C11.1713 16.1914 11.8068 15.9453 12.3181 15.4589L11.6289 14.7344L10.9397 14.0098C10.8104 14.1328 10.6724 14.1914 10.4688 14.1914V15.1914ZM11.6289 14.7344L12.3272 15.4502C12.8355 14.9543 13.1094 14.3232 13.1094 13.6094H12.1094H11.1094C11.1094 13.7705 11.063 13.8895 10.9306 14.0186L11.6289 14.7344ZM12.1094 13.6094H13.1094V11.7695H12.1094H11.1094V13.6094H12.1094ZM12.1094 11.7695H13.1094C13.1094 11.0557 12.8355 10.4246 12.3272 9.92875L11.6289 10.6445L10.9306 11.3603C11.063 11.4895 11.1094 11.6084 11.1094 11.7695H12.1094ZM11.6289 10.6445L12.3272 9.92875C11.814 9.42802 11.1702 9.17578 10.457 9.17578V10.1758V11.1758C10.6658 11.1758 10.8032 11.236 10.9306 11.3603L11.6289 10.6445ZM10.457 10.1758V9.17578H4.87891V10.1758V11.1758H10.457V10.1758ZM4.87891 10.1758H5.87891V7.71484H4.87891H3.87891V10.1758H4.87891ZM4.87891 7.71484V8.71484H9.77734V7.71484V6.71484H4.87891V7.71484ZM9.77734 7.71484V8.71484C10.4749 8.71484 11.1116 8.48176 11.6319 8.01107L10.9609 7.26953L10.29 6.528C10.154 6.65106 10.0017 6.71484 9.77734 6.71484V7.71484ZM10.9609 7.26953L11.6328 8.01025C12.1646 7.52789 12.4648 6.89701 12.4648 6.16797H11.4648H10.4648C10.4648 6.2983 10.4292 6.4018 10.2891 6.52881L10.9609 7.26953ZM11.4648 6.16797H12.4648V5.10156H11.4648H10.4648V6.16797H11.4648ZM11.4648 5.10156H12.4648C12.4648 4.36753 12.1794 3.72151 11.651 3.21767L10.9609 3.94141L10.2709 4.66514C10.4143 4.80193 10.4648 4.92935 10.4648 5.10156H11.4648ZM10.9609 3.94141L11.6595 3.22583C11.1435 2.72211 10.4978 2.46094 9.77734 2.46094V3.46094V4.46094C9.97876 4.46094 10.1222 4.52008 10.2624 4.65698L10.9609 3.94141ZM9.77734 3.46094V2.46094H3.47266V3.46094V4.46094H9.77734V3.46094ZM3.47266 3.46094H2.47266V15.1914H3.47266H4.47266V3.46094H3.47266ZM3.47266 15.1914V16.1914H10.4688V15.1914V14.1914H3.47266V15.1914ZM17.5 1V0H16.5V1H17.5ZM19.9609 1H20.9609V0H19.9609V1ZM30.4141 15.2031H31.4141V14.2031H30.4141V15.2031ZM30.4141 17.6641V18.6641H31.4141V17.6641H30.4141ZM19.8086 17.043L19.2941 17.9005L19.3053 17.9071L19.8086 17.043ZM18.1211 15.3555L17.2569 15.8588L17.2636 15.87L18.1211 15.3555ZM17.5 1V2H19.9609V1V0H17.5V1ZM19.9609 1H18.9609V13H19.9609H20.9609V1H19.9609ZM19.9609 13H18.9609C18.9609 13.8738 19.2805 14.6479 19.8984 15.2657L20.6055 14.5586L21.3126 13.8515C21.071 13.6099 20.9609 13.345 20.9609 13H19.9609ZM20.6055 14.5586L19.8984 15.2657C20.5134 15.8808 21.2826 16.2031 22.1523 16.2031V15.2031V14.2031C21.819 14.2031 21.5569 14.0958 21.3126 13.8515L20.6055 14.5586ZM22.1523 15.2031V16.2031H30.4141V15.2031V14.2031H22.1523V15.2031ZM30.4141 15.2031H29.4141V17.6641H30.4141H31.4141V15.2031H30.4141ZM30.4141 17.6641V16.6641H22.1523V17.6641V18.6641H30.4141V17.6641ZM22.1523 17.6641V16.6641C21.4711 16.6641 20.8645 16.5007 20.3119 16.1788L19.8086 17.043L19.3053 17.9071C20.1745 18.4133 21.1304 18.6641 22.1523 18.6641V17.6641ZM19.8086 17.043L20.3231 16.1855C19.7607 15.8481 19.316 15.4033 18.9786 14.841L18.1211 15.3555L17.2636 15.87C17.7699 16.7138 18.4502 17.3941 19.2941 17.9005L19.8086 17.043ZM18.1211 15.3555L18.9852 14.8522C18.6642 14.301 18.5 13.6908 18.5 13H17.5H16.5C16.5 14.028 16.7499 14.9881 17.257 15.8587L18.1211 15.3555ZM17.5 13H18.5V1H17.5H16.5V13H17.5Z" fill="black" mask="url(#path-1-outside-1_3_2)"/>
<defs>
<filter id="filter0_i_3_2" x="0" y="0" width="31.4141" height="18.6641" filterUnits="userSpaceOnUse" color-interpolation-filters="sRGB">
<feFlood flood-opacity="0" result="BackgroundImageFix"/>
<feBlend mode="normal" in="SourceGraphic" in2="BackgroundImageFix" result="shape"/>
<feColorMatrix in="SourceAlpha" type="matrix" values="0 0 0 0 0 0 0 0 0 0 0 0 0 0 0 0 0 0 127 0" result="hardAlpha"/>
<feOffset dx="100" dy="40"/>
<feGaussianBlur stdDeviation="20"/>
<feComposite in2="hardAlpha" operator="arithmetic" k2="-1" k3="1"/>
<feColorMatrix type="matrix" values="0 0 0 0 0 0 0 0 0 0.933333 0 0 0 0 1 0 0 0 0.25 0"/>
<feBlend mode="normal" in2="shape" result="effect1_innerShadow_3_2"/>
</filter>
<linearGradient id="paint0_linear_3_2" x1="7.04891" y1="-2.05704" x2="26.7578" y2="17.098" gradientUnits="userSpaceOnUse">
<stop offset="0.412267" stop-color="#6C31F4"/>
<stop offset="0.501992" stop-color="#9067F3"/>
<stop offset="0.588573" stop-color="#A985FF"/>
<stop offset="0.644342" stop-color="#AC94F1"/>
</linearGradient>
</defs>
</svg>
