<svg width="27" height="16" viewBox="0 0 27 16" fill="none" xmlns="http://www.w3.org/2000/svg">
<mask id="path-1-outside-1_3_2" maskUnits="userSpaceOnUse" x="-0.272415" y="-0.113281" width="27" height="16" fill="black">
<rect fill="white" x="-0.272415" y="-0.113281" width="27" height="16"/>
<path d="M1.00001 1H8.31446C8.95899 1 9.54167 1.15299 10.0625 1.45898C10.5833 1.76497 10.9968 2.17513 11.3027 2.68945C11.6152 3.20378 11.7715 3.77995 11.7715 4.41797V5.32617C11.7715 6.23112 11.5111 6.91797 10.9902 7.38672C11.4525 7.6862 11.7878 8.04427 11.9961 8.46094C12.2044 8.87109 12.3086 9.38542 12.3086 10.0039V11.5371C12.3086 12.1491 12.1524 12.709 11.8399 13.2168C11.5339 13.7246 11.1204 14.1315 10.5996 14.4375C10.0788 14.737 9.50261 14.8867 8.8711 14.8867H1.00001V1ZM8.89063 12.8262C9.26824 12.8262 9.5905 12.6992 9.85743 12.4453C10.1244 12.1849 10.2578 11.8724 10.2578 11.5078V9.97461C10.2578 9.61003 10.1244 9.29753 9.85743 9.03711C9.5905 8.77669 9.26498 8.64648 8.88087 8.64648H4.23243V6.5957H8.31446C8.69857 6.5957 9.02735 6.47201 9.30079 6.22461C9.58074 5.9707 9.72071 5.66471 9.72071 5.30664V4.41797C9.72071 4.04036 9.58074 3.7181 9.30079 3.45117C9.02735 3.18424 8.69857 3.05078 8.31446 3.05078H3.06055V12.8262H8.89063ZM14.75 1H16.8008V11C16.8008 11.5078 16.9798 11.9408 17.3379 12.2988C17.696 12.6569 18.1257 12.8359 18.627 12.8359H25.5117V14.8867H18.627C17.9173 14.8867 17.2663 14.7142 16.6738 14.3691C16.0879 14.0176 15.6191 13.5488 15.2676 12.9629C14.9225 12.3704 14.75 11.7161 14.75 11V1Z"/>
</mask>
<g filter="url(#filter0_i_3_2)">
<path d="M1.00001 1H8.31446C8.95899 1 9.54167 1.15299 10.0625 1.45898C10.5833 1.76497 10.9968 2.17513 11.3027 2.68945C11.6152 3.20378 11.7715 3.77995 11.7715 4.41797V5.32617C11.7715 6.23112 11.5111 6.91797 10.9902 7.38672C11.4525 7.6862 11.7878 8.04427 11.9961 8.46094C12.2044 8.87109 12.3086 9.38542 12.3086 10.0039V11.5371C12.3086 12.1491 12.1524 12.709 11.8399 13.2168C11.5339 13.7246 11.1204 14.1315 10.5996 14.4375C10.0788 14.737 9.50261 14.8867 8.8711 14.8867H1.00001V1ZM8.89063 12.8262C9.26824 12.8262 9.5905 12.6992 9.85743 12.4453C10.1244 12.1849 10.2578 11.8724 10.2578 11.5078V9.97461C10.2578 9.61003 10.1244 9.29753 9.85743 9.03711C9.5905 8.77669 9.26498 8.64648 8.88087 8.64648H4.23243V6.5957H8.31446C8.69857 6.5957 9.02735 6.47201 9.30079 6.22461C9.58074 5.9707 9.72071 5.66471 9.72071 5.30664V4.41797C9.72071 4.04036 9.58074 3.7181 9.30079 3.45117C9.02735 3.18424 8.69857 3.05078 8.31446 3.05078H3.06055V12.8262H8.89063ZM14.75 1H16.8008V11C16.8008 11.5078 16.9798 11.9408 17.3379 12.2988C17.696 12.6569 18.1257 12.8359 18.627 12.8359H25.5117V14.8867H18.627C17.9173 14.8867 17.2663 14.7142 16.6738 14.3691C16.0879 14.0176 15.6191 13.5488 15.2676 12.9629C14.9225 12.3704 14.75 11.7161 14.75 11V1Z" fill="url(#paint0_linear_3_2)"/>
</g>
<path d="M1.00001 1V0H6.67572e-06V1H1.00001ZM10.0625 1.45898L10.5691 0.596773L10.0625 1.45898ZM11.3027 2.68945L10.4433 3.20077L10.4481 3.20871L11.3027 2.68945ZM10.9902 7.38672L10.3213 6.64342L9.3513 7.51641L10.4465 8.22597L10.9902 7.38672ZM11.9961 8.46094L11.1017 8.90816L11.1045 8.9138L11.9961 8.46094ZM11.8399 13.2168L10.9882 12.6927L10.9833 12.7007L11.8399 13.2168ZM10.5996 14.4375L11.0981 15.3044L11.1062 15.2997L10.5996 14.4375ZM1.00001 14.8867H6.67572e-06V15.8867H1.00001V14.8867ZM9.85743 12.4453L10.5467 13.1699L10.5558 13.1611L9.85743 12.4453ZM9.85743 9.03711L10.5558 8.32133L9.85743 9.03711ZM4.23243 8.64648H3.23243V9.64648H4.23243V8.64648ZM4.23243 6.5957V5.5957H3.23243V6.5957H4.23243ZM9.30079 6.22461L9.9717 6.96615L9.9726 6.96533L9.30079 6.22461ZM9.30079 3.45117L8.6022 4.1668L8.61071 4.17491L9.30079 3.45117ZM3.06055 3.05078V2.05078H2.06055V3.05078H3.06055ZM3.06055 12.8262H2.06055V13.8262H3.06055V12.8262ZM1.00001 1V2H8.31446V1V0H1.00001V1ZM8.31446 1V2C8.79326 2 9.19902 2.1115 9.55596 2.3212L10.0625 1.45898L10.5691 0.596773C9.88432 0.194493 9.12472 0 8.31446 0V1ZM10.0625 1.45898L9.55596 2.3212C9.93291 2.54265 10.2244 2.83267 10.4433 3.20075L11.3027 2.68945L12.1621 2.17816C11.7691 1.51759 11.2338 0.987296 10.5691 0.596773L10.0625 1.45898ZM11.3027 2.68945L10.4481 3.20871C10.6597 3.55699 10.7715 3.9516 10.7715 4.41797H11.7715H12.7715C12.7715 3.6083 12.5707 2.85056 12.1574 2.17019L11.3027 2.68945ZM11.7715 4.41797H10.7715V5.32617H11.7715H12.7715V4.41797H11.7715ZM11.7715 5.32617H10.7715C10.7715 6.03543 10.5739 6.41603 10.3213 6.64342L10.9902 7.38672L11.6592 8.13001C12.4482 7.4199 12.7715 6.42681 12.7715 5.32617H11.7715ZM10.9902 7.38672L10.4465 8.22597C10.7865 8.44623 10.9866 8.67808 11.1017 8.90815L11.9961 8.46094L12.8905 8.01372C12.5889 7.41046 12.1185 6.92617 11.534 6.54747L10.9902 7.38672ZM11.9961 8.46094L11.1045 8.9138C11.2214 9.14383 11.3086 9.49107 11.3086 10.0039H12.3086H13.3086C13.3086 9.27977 13.1875 8.59836 12.8877 8.00807L11.9961 8.46094ZM12.3086 10.0039H11.3086V11.5371H12.3086H13.3086V10.0039H12.3086ZM12.3086 11.5371H11.3086C11.3086 11.9692 11.201 12.3468 10.9882 12.6927L11.8399 13.2168L12.6915 13.7409C13.1037 13.0712 13.3086 12.329 13.3086 11.5371H12.3086ZM11.8399 13.2168L10.9833 12.7007C10.765 13.063 10.4731 13.352 10.0931 13.5753L10.5996 14.4375L11.1062 15.2997C11.7678 14.911 12.3027 14.3862 12.6964 13.7329L11.8399 13.2168ZM10.5996 14.4375L10.1011 13.5706C9.73983 13.7784 9.33697 13.8867 8.8711 13.8867V14.8867V15.8867C9.66825 15.8867 10.4177 15.6956 11.0981 15.3044L10.5996 14.4375ZM8.8711 14.8867V13.8867H1.00001V14.8867V15.8867H8.8711V14.8867ZM1.00001 14.8867H2.00001V1H1.00001H6.67572e-06V14.8867H1.00001ZM8.89063 12.8262V13.8262C9.51768 13.8262 10.0887 13.6055 10.5466 13.1699L9.85743 12.4453L9.16821 11.7208C9.09228 11.793 9.01879 11.8262 8.89063 11.8262V12.8262ZM9.85743 12.4453L10.5558 13.1611C11.0106 12.7173 11.2578 12.1487 11.2578 11.5078H10.2578H9.25782C9.25782 11.596 9.23809 11.6525 9.1591 11.7295L9.85743 12.4453ZM10.2578 11.5078H11.2578V9.97461H10.2578H9.25782V11.5078H10.2578ZM10.2578 9.97461H11.2578C11.2578 9.33368 11.0106 8.7651 10.5558 8.32133L9.85743 9.03711L9.1591 9.75289C9.23809 9.82995 9.25782 9.88638 9.25782 9.97461H10.2578ZM9.85743 9.03711L10.5558 8.32133C10.0959 7.87268 9.51719 7.64648 8.88087 7.64648V8.64648V9.64648C9.01277 9.64648 9.08511 9.6807 9.1591 9.75289L9.85743 9.03711ZM8.88087 8.64648V7.64648H4.23243V8.64648V9.64648H8.88087V8.64648ZM4.23243 8.64648H5.23243V6.5957H4.23243H3.23243V8.64648H4.23243ZM4.23243 6.5957V7.5957H8.31446V6.5957V5.5957H4.23243V6.5957ZM8.31446 6.5957V7.5957C8.93517 7.5957 9.50616 7.38735 9.9717 6.96614L9.30079 6.22461L8.62987 5.48307C8.54855 5.55666 8.46198 5.5957 8.31446 5.5957V6.5957ZM9.30079 6.22461L9.9726 6.96533C10.4485 6.53375 10.7207 5.96407 10.7207 5.30664H9.72071H8.72071C8.72071 5.36536 8.71302 5.40766 8.62897 5.48389L9.30079 6.22461ZM9.72071 5.30664H10.7207V4.41797H9.72071H8.72071V5.30664H9.72071ZM9.72071 4.41797H10.7207C10.7207 3.75946 10.4633 3.17789 9.99086 2.72743L9.30079 3.45117L8.61071 4.17491C8.69818 4.25831 8.72071 4.32127 8.72071 4.41797H9.72071ZM9.30079 3.45117L9.99932 2.7356C9.538 2.28526 8.95809 2.05078 8.31446 2.05078V3.05078V4.05078C8.43906 4.05078 8.5167 4.08323 8.60225 4.16675L9.30079 3.45117ZM8.31446 3.05078V2.05078H3.06055V3.05078V4.05078H8.31446V3.05078ZM3.06055 3.05078H2.06055V12.8262H3.06055H4.06055V3.05078H3.06055ZM3.06055 12.8262V13.8262H8.89063V12.8262V11.8262H3.06055V12.8262ZM14.75 1V0H13.75V1H14.75ZM16.8008 1H17.8008V0H16.8008V1ZM17.3379 12.2988L16.6308 13.0059L17.3379 12.2988ZM25.5117 12.8359H26.5117V11.8359H25.5117V12.8359ZM25.5117 14.8867V15.8867H26.5117V14.8867H25.5117ZM16.6738 14.3691L16.1593 15.2267L16.1706 15.2333L16.6738 14.3691ZM15.2676 12.9629L14.4034 13.4662L14.4101 13.4774L15.2676 12.9629ZM14.75 1V2H16.8008V1V0H14.75V1ZM16.8008 1H15.8008V11H16.8008H17.8008V1H16.8008ZM16.8008 11H15.8008C15.8008 11.7722 16.0846 12.4597 16.6308 13.0059L17.3379 12.2988L18.045 11.5917C17.8751 11.4218 17.8008 11.2434 17.8008 11H16.8008ZM17.3379 12.2988L16.6308 13.0059C17.1743 13.5494 17.8574 13.8359 18.627 13.8359V12.8359V11.8359C18.3939 11.8359 18.2177 11.7644 18.045 11.5917L17.3379 12.2988ZM18.627 12.8359V13.8359H25.5117V12.8359V11.8359H18.627V12.8359ZM25.5117 12.8359H24.5117V14.8867H25.5117H26.5117V12.8359H25.5117ZM25.5117 14.8867V13.8867H18.627V14.8867V15.8867H25.5117V14.8867ZM18.627 14.8867V13.8867C18.0877 13.8867 17.6113 13.7579 17.1771 13.505L16.6738 14.3691L16.1706 15.2333C16.9213 15.6705 17.747 15.8867 18.627 15.8867V14.8867ZM16.6738 14.3691L17.1883 13.5116C16.7431 13.2445 16.3922 12.8936 16.1251 12.4484L15.2676 12.9629L14.4101 13.4774C14.8461 14.2041 15.4327 14.7906 16.1593 15.2266L16.6738 14.3691ZM15.2676 12.9629L16.1317 12.4596C15.8797 12.0269 15.75 11.5475 15.75 11H14.75H13.75C13.75 11.8848 13.9654 12.714 14.4035 13.4662L15.2676 12.9629ZM14.75 11H15.75V1H14.75H13.75V11H14.75Z" fill="black" mask="url(#path-1-outside-1_3_2)"/>
<defs>
<filter id="filter0_i_3_2" x="0" y="0" width="26.5117" height="15.8867" filterUnits="userSpaceOnUse" color-interpolation-filters="sRGB">
<feFlood flood-opacity="0" result="BackgroundImageFix"/>
<feBlend mode="normal" in="SourceGraphic" in2="BackgroundImageFix" result="shape"/>
<feColorMatrix in="SourceAlpha" type="matrix" values="0 0 0 0 0 0 0 0 0 0 0 0 0 0 0 0 0 0 127 0" result="hardAlpha"/>
<feOffset dx="100" dy="40"/>
<feGaussianBlur stdDeviation="20"/>
<feComposite in2="hardAlpha" operator="arithmetic" k2="-1" k3="1"/>
<feColorMatrix type="matrix" values="0 0 0 0 0 0 0 0 0 0.933333 0 0 0 0 1 0 0 0 0.25 0"/>
<feBlend mode="normal" in2="shape" result="effect1_innerShadow_3_2"/>
</filter>
<linearGradient id="paint0_linear_3_2" x1="5.83012" y1="-3.82082" x2="25.2977" y2="12.373" gradientUnits="userSpaceOnUse">
<stop offset="0.412267" stop-color="#6C31F4"/>
<stop offset="0.501992" stop-color="#9067F3"/>
<stop offset="0.588573" stop-color="#A985FF"/>
<stop offset="0.644342" stop-color="#AC94F1"/>
</linearGradient>
</defs>
</svg>
