<svg width="568" height="398" viewBox="0 0 568 398" fill="none" xmlns="http://www.w3.org/2000/svg">
<path d="M284 27C382.307 27 462 106.693 462 205C462 303.307 382.307 383 284 383C185.693 383 106 303.307 106 205C106 106.693 185.693 27 284 27Z" fill="black"/>
<mask id="path-3-outside-1_1_9" maskUnits="userSpaceOnUse" x="181" y="141" width="206" height="115" fill="black">
<rect fill="white" x="181" y="141" width="206" height="115"/>
<path d="M200.469 142.562H223.875C225.938 142.562 227.802 143.052 229.469 144.031C231.135 145.01 232.458 146.323 233.438 147.969C234.438 149.615 234.938 151.458 234.938 153.5V156.406C234.938 159.302 234.104 161.5 232.438 163C233.917 163.958 234.99 165.104 235.656 166.438C236.323 167.75 236.656 169.396 236.656 171.375V176.281C236.656 178.24 236.156 180.031 235.156 181.656C234.177 183.281 232.854 184.583 231.188 185.562C229.521 186.521 227.677 187 225.656 187H200.469V142.562ZM225.719 180.406C226.927 180.406 227.958 180 228.812 179.188C229.667 178.354 230.094 177.354 230.094 176.188V171.281C230.094 170.115 229.667 169.115 228.812 168.281C227.958 167.448 226.917 167.031 225.688 167.031H210.812V160.469H223.875C225.104 160.469 226.156 160.073 227.031 159.281C227.927 158.469 228.375 157.49 228.375 156.344V153.5C228.375 152.292 227.927 151.26 227.031 150.406C226.156 149.552 225.104 149.125 223.875 149.125H207.062V180.406H225.719ZM244.469 142.562H251.062V174.531C251.062 176.156 251.656 177.542 252.844 178.688C254.031 179.833 255.458 180.406 257.125 180.406H268.031C269.698 180.406 271.125 179.833 272.312 178.688C273.5 177.542 274.094 176.156 274.094 174.531V142.562H280.656V174.594C280.656 176.865 280.083 178.948 278.938 180.844C277.812 182.719 276.292 184.219 274.375 185.344C272.479 186.448 270.365 187 268.031 187H257.125C254.792 187 252.667 186.448 250.75 185.344C248.833 184.219 247.302 182.719 246.156 180.844C245.031 178.948 244.469 176.865 244.469 174.594V142.562ZM289.406 142.562H313.031C315.344 142.562 317.448 143.125 319.344 144.25C321.26 145.375 322.781 146.885 323.906 148.781C325.031 150.656 325.594 152.75 325.594 155.062V174.625C325.594 176.896 325.031 178.969 323.906 180.844C322.781 182.719 321.26 184.219 319.344 185.344C317.448 186.448 315.344 187 313.031 187H289.406V142.562ZM313.031 180.406C314.698 180.406 316.115 179.833 317.281 178.688C318.448 177.542 319.031 176.156 319.031 174.531V155.062C319.031 153.417 318.448 152.021 317.281 150.875C316.115 149.708 314.698 149.125 313.031 149.125H296V180.406H313.031ZM346.5 142.562H354.719L370.625 187H363.594L358.75 173.625H346.344L348.719 167.062H356.375L350.625 151.188L337.625 187H330.594L346.5 142.562ZM182.625 210.562H189.188V242.562C189.188 244.188 189.76 245.573 190.906 246.719C192.052 247.865 193.427 248.438 195.031 248.438H217.062V255H195.031C192.76 255 190.677 254.448 188.781 253.344C186.906 252.219 185.406 250.719 184.281 248.844C183.177 246.948 182.625 244.854 182.625 242.562V210.562ZM222.688 210.562H257.156V217.125H229.281V248.406H257.156V255H222.688V210.562ZM233.031 228.594H257.156V235.156H233.031V228.594ZM278.094 210.562H286.312L302.219 255H295.188L290.344 241.625H277.938L280.312 235.062H287.969L282.219 219.188L269.219 255H262.188L278.094 210.562ZM307.875 210.562H331.375C333.396 210.562 335.229 211.062 336.875 212.062C338.542 213.042 339.865 214.354 340.844 216C341.844 217.646 342.344 219.479 342.344 221.5V225.938C342.344 227.958 341.854 229.781 340.875 231.406C339.917 233.031 338.604 234.323 336.938 235.281C335.271 236.24 333.406 236.719 331.344 236.719L344.594 255H336.562L323.312 236.719H318.219V230.156H331.375C332.604 230.156 333.646 229.74 334.5 228.906C335.354 228.052 335.781 227.031 335.781 225.844V221.5C335.781 220.292 335.354 219.26 334.5 218.406C333.646 217.552 332.604 217.125 331.375 217.125H314.469V255H307.875V210.562ZM350.875 210.562H359.438L378.781 245.469V210.562H385.375V255H376.812L357.469 220.562V255H350.875V210.562Z"/>
</mask>
<g filter="url(#filter0_i_1_9)">
<path d="M200.469 142.562H223.875C225.938 142.562 227.802 143.052 229.469 144.031C231.135 145.01 232.458 146.323 233.438 147.969C234.438 149.615 234.938 151.458 234.938 153.5V156.406C234.938 159.302 234.104 161.5 232.438 163C233.917 163.958 234.99 165.104 235.656 166.438C236.323 167.75 236.656 169.396 236.656 171.375V176.281C236.656 178.24 236.156 180.031 235.156 181.656C234.177 183.281 232.854 184.583 231.188 185.562C229.521 186.521 227.677 187 225.656 187H200.469V142.562ZM225.719 180.406C226.927 180.406 227.958 180 228.812 179.188C229.667 178.354 230.094 177.354 230.094 176.188V171.281C230.094 170.115 229.667 169.115 228.812 168.281C227.958 167.448 226.917 167.031 225.688 167.031H210.812V160.469H223.875C225.104 160.469 226.156 160.073 227.031 159.281C227.927 158.469 228.375 157.49 228.375 156.344V153.5C228.375 152.292 227.927 151.26 227.031 150.406C226.156 149.552 225.104 149.125 223.875 149.125H207.062V180.406H225.719ZM244.469 142.562H251.062V174.531C251.062 176.156 251.656 177.542 252.844 178.688C254.031 179.833 255.458 180.406 257.125 180.406H268.031C269.698 180.406 271.125 179.833 272.312 178.688C273.5 177.542 274.094 176.156 274.094 174.531V142.562H280.656V174.594C280.656 176.865 280.083 178.948 278.938 180.844C277.812 182.719 276.292 184.219 274.375 185.344C272.479 186.448 270.365 187 268.031 187H257.125C254.792 187 252.667 186.448 250.75 185.344C248.833 184.219 247.302 182.719 246.156 180.844C245.031 178.948 244.469 176.865 244.469 174.594V142.562ZM289.406 142.562H313.031C315.344 142.562 317.448 143.125 319.344 144.25C321.26 145.375 322.781 146.885 323.906 148.781C325.031 150.656 325.594 152.75 325.594 155.062V174.625C325.594 176.896 325.031 178.969 323.906 180.844C322.781 182.719 321.26 184.219 319.344 185.344C317.448 186.448 315.344 187 313.031 187H289.406V142.562ZM313.031 180.406C314.698 180.406 316.115 179.833 317.281 178.688C318.448 177.542 319.031 176.156 319.031 174.531V155.062C319.031 153.417 318.448 152.021 317.281 150.875C316.115 149.708 314.698 149.125 313.031 149.125H296V180.406H313.031ZM346.5 142.562H354.719L370.625 187H363.594L358.75 173.625H346.344L348.719 167.062H356.375L350.625 151.188L337.625 187H330.594L346.5 142.562ZM182.625 210.562H189.188V242.562C189.188 244.188 189.76 245.573 190.906 246.719C192.052 247.865 193.427 248.438 195.031 248.438H217.062V255H195.031C192.76 255 190.677 254.448 188.781 253.344C186.906 252.219 185.406 250.719 184.281 248.844C183.177 246.948 182.625 244.854 182.625 242.562V210.562ZM222.688 210.562H257.156V217.125H229.281V248.406H257.156V255H222.688V210.562ZM233.031 228.594H257.156V235.156H233.031V228.594ZM278.094 210.562H286.312L302.219 255H295.188L290.344 241.625H277.938L280.312 235.062H287.969L282.219 219.188L269.219 255H262.188L278.094 210.562ZM307.875 210.562H331.375C333.396 210.562 335.229 211.062 336.875 212.062C338.542 213.042 339.865 214.354 340.844 216C341.844 217.646 342.344 219.479 342.344 221.5V225.938C342.344 227.958 341.854 229.781 340.875 231.406C339.917 233.031 338.604 234.323 336.938 235.281C335.271 236.24 333.406 236.719 331.344 236.719L344.594 255H336.562L323.312 236.719H318.219V230.156H331.375C332.604 230.156 333.646 229.74 334.5 228.906C335.354 228.052 335.781 227.031 335.781 225.844V221.5C335.781 220.292 335.354 219.26 334.5 218.406C333.646 217.552 332.604 217.125 331.375 217.125H314.469V255H307.875V210.562ZM350.875 210.562H359.438L378.781 245.469V210.562H385.375V255H376.812L357.469 220.562V255H350.875V210.562Z" fill="url(#paint0_linear_1_9)"/>
</g>
<path d="M200.469 142.562V141.562H199.469V142.562H200.469ZM229.469 144.031L229.975 143.169L229.469 144.031ZM233.438 147.969L232.578 148.48L232.583 148.488L233.438 147.969ZM232.438 163L231.769 162.257L230.799 163.13L231.894 163.839L232.438 163ZM235.656 166.438L234.762 166.885L234.765 166.89L235.656 166.438ZM235.156 181.656L234.305 181.132L234.3 181.14L235.156 181.656ZM231.188 185.562L231.686 186.429L231.694 186.425L231.188 185.562ZM200.469 187H199.469V188H200.469V187ZM228.812 179.188L229.502 179.912L229.511 179.903L228.812 179.188ZM228.812 168.281L229.511 167.565L228.812 168.281ZM210.812 167.031H209.812V168.031H210.812V167.031ZM210.812 160.469V159.469H209.812V160.469H210.812ZM227.031 159.281L227.702 160.023L227.703 160.022L227.031 159.281ZM227.031 150.406L226.333 151.122L226.341 151.13L227.031 150.406ZM207.062 149.125V148.125H206.062V149.125H207.062ZM207.062 180.406H206.062V181.406H207.062V180.406ZM200.469 142.562V143.562H223.875V142.562V141.562H200.469V142.562ZM223.875 142.562V143.562C225.772 143.562 227.459 144.011 228.962 144.893L229.469 144.031L229.975 143.169C228.145 142.094 226.103 141.562 223.875 141.562V142.562ZM229.469 144.031L228.962 144.893C230.485 145.788 231.686 146.98 232.578 148.48L233.438 147.969L234.297 147.457C233.231 145.665 231.786 144.233 229.975 143.169L229.469 144.031ZM233.438 147.969L232.583 148.488C233.482 149.968 233.938 151.63 233.938 153.5H234.938H235.938C235.938 151.287 235.393 149.261 234.292 147.449L233.438 147.969ZM234.938 153.5H233.938V156.406H234.938H235.938V153.5H234.938ZM234.938 156.406H233.938C233.938 159.106 233.167 160.998 231.769 162.257L232.438 163L233.106 163.743C235.041 162.002 235.938 159.498 235.938 156.406H234.938ZM232.438 163L231.894 163.839C233.251 164.718 234.188 165.738 234.762 166.885L235.656 166.438L236.551 165.99C235.791 164.47 234.583 163.198 232.981 162.161L232.438 163ZM235.656 166.438L234.765 166.89C235.34 168.023 235.656 169.501 235.656 171.375H236.656H237.656C237.656 169.29 237.306 167.477 236.548 165.985L235.656 166.438ZM236.656 171.375H235.656V176.281H236.656H237.656V171.375H236.656ZM236.656 176.281H235.656C235.656 178.06 235.205 179.669 234.305 181.132L235.156 181.656L236.008 182.18C237.108 180.393 237.656 178.42 237.656 176.281H236.656ZM235.156 181.656L234.3 181.14C233.408 182.62 232.207 183.804 230.681 184.7L231.188 185.562L231.694 186.425C233.502 185.363 234.946 183.943 236.013 182.172L235.156 181.656ZM231.188 185.562L230.689 184.696C229.182 185.562 227.511 186 225.656 186V187V188C227.843 188 229.86 187.479 231.686 186.429L231.188 185.562ZM225.656 187V186H200.469V187V188H225.656V187ZM200.469 187H201.469V142.562H200.469H199.469V187H200.469ZM225.719 180.406V181.406C227.177 181.406 228.457 180.906 229.502 179.912L228.812 179.188L228.123 178.463C227.46 179.094 226.678 179.406 225.719 179.406V180.406ZM228.812 179.188L229.511 179.903C230.553 178.887 231.094 177.631 231.094 176.188H230.094H229.094C229.094 177.078 228.78 177.822 228.114 178.472L228.812 179.188ZM230.094 176.188H231.094V171.281H230.094H229.094V176.188H230.094ZM230.094 171.281H231.094C231.094 169.838 230.553 168.582 229.511 167.565L228.812 168.281L228.114 168.997C228.78 169.647 229.094 170.391 229.094 171.281H230.094ZM228.812 168.281L229.511 167.565C228.464 166.544 227.169 166.031 225.688 166.031V167.031V168.031C226.664 168.031 227.453 168.352 228.114 168.997L228.812 168.281ZM225.688 167.031V166.031H210.812V167.031V168.031H225.688V167.031ZM210.812 167.031H211.812V160.469H210.812H209.812V167.031H210.812ZM210.812 160.469V161.469H223.875V160.469V159.469H210.812V160.469ZM223.875 160.469V161.469C225.341 161.469 226.635 160.988 227.702 160.023L227.031 159.281L226.36 158.54C225.677 159.158 224.868 159.469 223.875 159.469V160.469ZM227.031 159.281L227.703 160.022C228.795 159.032 229.375 157.789 229.375 156.344H228.375H227.375C227.375 157.19 227.059 157.906 226.359 158.541L227.031 159.281ZM228.375 156.344H229.375V153.5H228.375H227.375V156.344H228.375ZM228.375 153.5H229.375C229.375 152.011 228.81 150.72 227.721 149.683L227.031 150.406L226.341 151.13C227.045 151.801 227.375 152.573 227.375 153.5H228.375ZM227.031 150.406L227.73 149.691C226.667 148.653 225.364 148.125 223.875 148.125V149.125V150.125C224.845 150.125 225.646 150.451 226.333 151.122L227.031 150.406ZM223.875 149.125V148.125H207.062V149.125V150.125H223.875V149.125ZM207.062 149.125H206.062V180.406H207.062H208.062V149.125H207.062ZM207.062 180.406V181.406H225.719V180.406V179.406H207.062V180.406ZM244.469 142.562V141.562H243.469V142.562H244.469ZM251.062 142.562H252.062V141.562H251.062V142.562ZM252.844 178.688L252.149 179.407L252.844 178.688ZM274.094 142.562V141.562H273.094V142.562H274.094ZM280.656 142.562H281.656V141.562H280.656V142.562ZM278.938 180.844L278.082 180.326L278.08 180.329L278.938 180.844ZM274.375 185.344L274.878 186.208L274.881 186.206L274.375 185.344ZM250.75 185.344L250.244 186.206L250.251 186.21L250.75 185.344ZM246.156 180.844L245.296 181.354L245.303 181.365L246.156 180.844ZM244.469 142.562V143.562H251.062V142.562V141.562H244.469V142.562ZM251.062 142.562H250.062V174.531H251.062H252.062V142.562H251.062ZM251.062 174.531H250.062C250.062 176.432 250.77 178.076 252.149 179.407L252.844 178.688L253.538 177.968C252.543 177.007 252.062 175.88 252.062 174.531H251.062ZM252.844 178.688L252.149 179.407C253.525 180.735 255.202 181.406 257.125 181.406V180.406V179.406C255.714 179.406 254.537 178.932 253.538 177.968L252.844 178.688ZM257.125 180.406V181.406H268.031V180.406V179.406H257.125V180.406ZM268.031 180.406V181.406C269.954 181.406 271.631 180.735 273.007 179.407L272.312 178.688L271.618 177.968C270.619 178.932 269.442 179.406 268.031 179.406V180.406ZM272.312 178.688L273.007 179.407C274.386 178.076 275.094 176.432 275.094 174.531H274.094H273.094C273.094 175.88 272.614 177.007 271.618 177.968L272.312 178.688ZM274.094 174.531H275.094V142.562H274.094H273.094V174.531H274.094ZM274.094 142.562V143.562H280.656V142.562V141.562H274.094V142.562ZM280.656 142.562H279.656V174.594H280.656H281.656V142.562H280.656ZM280.656 174.594H279.656C279.656 176.687 279.131 178.591 278.082 180.326L278.938 180.844L279.793 181.361C281.036 179.305 281.656 177.042 281.656 174.594H280.656ZM278.938 180.844L278.08 180.329C277.043 182.058 275.644 183.44 273.869 184.481L274.375 185.344L274.881 186.206C276.94 184.998 278.582 183.379 279.795 181.358L278.938 180.844ZM274.375 185.344L273.872 184.48C272.138 185.489 270.199 186 268.031 186V187V188C270.53 188 272.82 187.407 274.878 186.208L274.375 185.344ZM268.031 187V186H257.125V187V188H268.031V187ZM257.125 187V186C254.957 186 253.006 185.489 251.249 184.477L250.75 185.344L250.251 186.21C252.328 187.407 254.626 188 257.125 188V187ZM250.75 185.344L251.256 184.481C249.48 183.439 248.068 182.055 247.01 180.322L246.156 180.844L245.303 181.365C246.536 183.382 248.187 184.999 250.244 186.206L250.75 185.344ZM246.156 180.844L247.016 180.333C245.986 178.597 245.469 176.691 245.469 174.594H244.469H243.469C243.469 177.039 244.077 179.299 245.296 181.354L246.156 180.844ZM244.469 174.594H245.469V142.562H244.469H243.469V174.594H244.469ZM289.406 142.562V141.562H288.406V142.562H289.406ZM319.344 144.25L318.833 145.11L318.838 145.112L319.344 144.25ZM323.906 148.781L323.046 149.292L323.049 149.296L323.906 148.781ZM319.344 185.344L319.847 186.208L319.85 186.206L319.344 185.344ZM289.406 187H288.406V188H289.406V187ZM317.281 178.688L317.982 179.401L317.281 178.688ZM317.281 150.875L316.574 151.582L316.581 151.588L317.281 150.875ZM296 149.125V148.125H295V149.125H296ZM296 180.406H295V181.406H296V180.406ZM289.406 142.562V143.562H313.031V142.562V141.562H289.406V142.562ZM313.031 142.562V143.562C315.173 143.562 317.1 144.081 318.833 145.11L319.344 144.25L319.854 143.39C317.796 142.169 315.514 141.562 313.031 141.562V142.562ZM319.344 144.25L318.838 145.112C320.61 146.153 322.008 147.542 323.046 149.292L323.906 148.781L324.766 148.271C323.554 146.228 321.911 144.597 319.85 143.388L319.344 144.25ZM323.906 148.781L323.049 149.296C324.075 151.006 324.594 152.92 324.594 155.062H325.594H326.594C326.594 152.58 325.987 150.306 324.764 148.267L323.906 148.781ZM325.594 155.062H324.594V174.625H325.594H326.594V155.062H325.594ZM325.594 174.625H324.594C324.594 176.722 324.077 178.616 323.049 180.329L323.906 180.844L324.764 181.358C325.986 179.322 326.594 177.07 326.594 174.625H325.594ZM323.906 180.844L323.049 180.329C322.011 182.058 320.612 183.44 318.838 184.481L319.344 185.344L319.85 186.206C321.909 184.998 323.551 183.379 324.764 181.358L323.906 180.844ZM319.344 185.344L318.84 184.48C317.106 185.49 315.177 186 313.031 186V187V188C315.511 188 317.79 187.406 319.847 186.208L319.344 185.344ZM313.031 187V186H289.406V187V188H313.031V187ZM289.406 187H290.406V142.562H289.406H288.406V187H289.406ZM313.031 180.406V181.406C314.954 181.406 316.624 180.734 317.982 179.401L317.281 178.688L316.581 177.974C315.605 178.932 314.441 179.406 313.031 179.406V180.406ZM317.281 178.688L317.982 179.401C319.339 178.068 320.031 176.426 320.031 174.531H319.031H318.031C318.031 175.886 317.557 177.015 316.581 177.974L317.281 178.688ZM319.031 174.531H320.031V155.062H319.031H318.031V174.531H319.031ZM319.031 155.062H320.031C320.031 153.15 319.341 151.497 317.982 150.162L317.281 150.875L316.581 151.588C317.554 152.545 318.031 153.683 318.031 155.062H319.031ZM317.281 150.875L317.988 150.168C316.632 148.812 314.96 148.125 313.031 148.125V149.125V150.125C314.436 150.125 315.597 150.605 316.574 151.582L317.281 150.875ZM313.031 149.125V148.125H296V149.125V150.125H313.031V149.125ZM296 149.125H295V180.406H296H297V149.125H296ZM296 180.406V181.406H313.031V180.406V179.406H296V180.406ZM346.5 142.562V141.562H345.796L345.559 142.225L346.5 142.562ZM354.719 142.562L355.66 142.225L355.423 141.562H354.719V142.562ZM370.625 187V188H372.045L371.566 186.663L370.625 187ZM363.594 187L362.654 187.341L362.892 188H363.594V187ZM358.75 173.625L359.69 173.284L359.451 172.625H358.75V173.625ZM346.344 173.625L345.403 173.285L344.918 174.625H346.344V173.625ZM348.719 167.062V166.062H348.017L347.778 166.722L348.719 167.062ZM356.375 167.062V168.062H357.801L357.315 166.722L356.375 167.062ZM350.625 151.188L351.565 150.847L350.626 148.254L349.685 150.846L350.625 151.188ZM337.625 187V188H338.326L338.565 187.341L337.625 187ZM330.594 187L329.652 186.663L329.174 188H330.594V187ZM346.5 142.562V143.562H354.719V142.562V141.562H346.5V142.562ZM354.719 142.562L353.777 142.9L369.684 187.337L370.625 187L371.566 186.663L355.66 142.225L354.719 142.562ZM370.625 187V186H363.594V187V188H370.625V187ZM363.594 187L364.534 186.659L359.69 173.284L358.75 173.625L357.81 173.966L362.654 187.341L363.594 187ZM358.75 173.625V172.625H346.344V173.625V174.625H358.75V173.625ZM346.344 173.625L347.284 173.965L349.659 167.403L348.719 167.062L347.778 166.722L345.403 173.285L346.344 173.625ZM348.719 167.062V168.062H356.375V167.062V166.062H348.719V167.062ZM356.375 167.062L357.315 166.722L351.565 150.847L350.625 151.188L349.685 151.528L355.435 167.403L356.375 167.062ZM350.625 151.188L349.685 150.846L336.685 186.659L337.625 187L338.565 187.341L351.565 151.529L350.625 151.188ZM337.625 187V186H330.594V187V188H337.625V187ZM330.594 187L331.535 187.337L347.441 142.9L346.5 142.562L345.559 142.225L329.652 186.663L330.594 187ZM182.625 210.562V209.562H181.625V210.562H182.625ZM189.188 210.562H190.188V209.562H189.188V210.562ZM190.906 246.719L190.199 247.426L190.906 246.719ZM217.062 248.438H218.062V247.438H217.062V248.438ZM217.062 255V256H218.062V255H217.062ZM188.781 253.344L188.267 254.201L188.278 254.208L188.781 253.344ZM184.281 248.844L183.417 249.347L183.424 249.358L184.281 248.844ZM182.625 210.562V211.562H189.188V210.562V209.562H182.625V210.562ZM189.188 210.562H188.188V242.562H189.188H190.188V210.562H189.188ZM189.188 242.562H188.188C188.188 244.452 188.865 246.092 190.199 247.426L190.906 246.719L191.613 246.012C190.656 245.054 190.188 243.923 190.188 242.562H189.188ZM190.906 246.719L190.199 247.426C191.53 248.757 193.159 249.438 195.031 249.438V248.438V247.438C193.695 247.438 192.574 246.972 191.613 246.012L190.906 246.719ZM195.031 248.438V249.438H217.062V248.438V247.438H195.031V248.438ZM217.062 248.438H216.062V255H217.062H218.062V248.438H217.062ZM217.062 255V254H195.031V255V256H217.062V255ZM195.031 255V254C192.931 254 191.022 253.492 189.285 252.48L188.781 253.344L188.278 254.208C190.332 255.404 192.59 256 195.031 256V255ZM188.781 253.344L189.296 252.486C187.561 251.446 186.179 250.064 185.139 248.329L184.281 248.844L183.424 249.358C184.633 251.374 186.251 252.992 188.267 254.201L188.781 253.344ZM184.281 248.844L185.145 248.34C184.134 246.604 183.625 244.686 183.625 242.562H182.625H181.625C181.625 245.023 182.22 247.291 183.417 249.347L184.281 248.844ZM182.625 242.562H183.625V210.562H182.625H181.625V242.562H182.625ZM222.688 210.562V209.562H221.688V210.562H222.688ZM257.156 210.562H258.156V209.562H257.156V210.562ZM257.156 217.125V218.125H258.156V217.125H257.156ZM229.281 217.125V216.125H228.281V217.125H229.281ZM229.281 248.406H228.281V249.406H229.281V248.406ZM257.156 248.406H258.156V247.406H257.156V248.406ZM257.156 255V256H258.156V255H257.156ZM222.688 255H221.688V256H222.688V255ZM233.031 228.594V227.594H232.031V228.594H233.031ZM257.156 228.594H258.156V227.594H257.156V228.594ZM257.156 235.156V236.156H258.156V235.156H257.156ZM233.031 235.156H232.031V236.156H233.031V235.156ZM222.688 210.562V211.562H257.156V210.562V209.562H222.688V210.562ZM257.156 210.562H256.156V217.125H257.156H258.156V210.562H257.156ZM257.156 217.125V216.125H229.281V217.125V218.125H257.156V217.125ZM229.281 217.125H228.281V248.406H229.281H230.281V217.125H229.281ZM229.281 248.406V249.406H257.156V248.406V247.406H229.281V248.406ZM257.156 248.406H256.156V255H257.156H258.156V248.406H257.156ZM257.156 255V254H222.688V255V256H257.156V255ZM222.688 255H223.688V210.562H222.688H221.688V255H222.688ZM233.031 228.594V229.594H257.156V228.594V227.594H233.031V228.594ZM257.156 228.594H256.156V235.156H257.156H258.156V228.594H257.156ZM257.156 235.156V234.156H233.031V235.156V236.156H257.156V235.156ZM233.031 235.156H234.031V228.594H233.031H232.031V235.156H233.031ZM278.094 210.562V209.562H277.39L277.152 210.225L278.094 210.562ZM286.312 210.562L287.254 210.225L287.017 209.562H286.312V210.562ZM302.219 255V256H303.639L303.16 254.663L302.219 255ZM295.188 255L294.247 255.341L294.486 256H295.188V255ZM290.344 241.625L291.284 241.284L291.045 240.625H290.344V241.625ZM277.938 241.625L276.997 241.285L276.512 242.625H277.938V241.625ZM280.312 235.062V234.062H279.611L279.372 234.722L280.312 235.062ZM287.969 235.062V236.062H289.395L288.909 234.722L287.969 235.062ZM282.219 219.188L283.159 218.847L282.22 216.254L281.279 218.846L282.219 219.188ZM269.219 255V256H269.92L270.159 255.341L269.219 255ZM262.188 255L261.246 254.663L260.767 256H262.188V255ZM278.094 210.562V211.562H286.312V210.562V209.562H278.094V210.562ZM286.312 210.562L285.371 210.9L301.277 255.337L302.219 255L303.16 254.663L287.254 210.225L286.312 210.562ZM302.219 255V254H295.188V255V256H302.219V255ZM295.188 255L296.128 254.659L291.284 241.284L290.344 241.625L289.404 241.966L294.247 255.341L295.188 255ZM290.344 241.625V240.625H277.938V241.625V242.625H290.344V241.625ZM277.938 241.625L278.878 241.965L281.253 235.403L280.312 235.062L279.372 234.722L276.997 241.285L277.938 241.625ZM280.312 235.062V236.062H287.969V235.062V234.062H280.312V235.062ZM287.969 235.062L288.909 234.722L283.159 218.847L282.219 219.188L281.279 219.528L287.029 235.403L287.969 235.062ZM282.219 219.188L281.279 218.846L268.279 254.659L269.219 255L270.159 255.341L283.159 219.529L282.219 219.188ZM269.219 255V254H262.188V255V256H269.219V255ZM262.188 255L263.129 255.337L279.035 210.9L278.094 210.562L277.152 210.225L261.246 254.663L262.188 255ZM307.875 210.562V209.562H306.875V210.562H307.875ZM336.875 212.062L336.356 212.917L336.362 212.921L336.368 212.925L336.875 212.062ZM340.844 216L339.984 216.511L339.989 216.519L340.844 216ZM340.875 231.406L340.018 230.89L340.014 230.898L340.875 231.406ZM336.938 235.281L337.436 236.148L336.938 235.281ZM331.344 236.719V235.719H329.384L330.534 237.306L331.344 236.719ZM344.594 255V256H346.554L345.403 254.413L344.594 255ZM336.562 255L335.753 255.587L336.052 256H336.562V255ZM323.312 236.719L324.122 236.132L323.823 235.719H323.312V236.719ZM318.219 236.719H317.219V237.719H318.219V236.719ZM318.219 230.156V229.156H317.219V230.156H318.219ZM334.5 228.906L335.198 229.622L335.207 229.613L334.5 228.906ZM314.469 217.125V216.125H313.469V217.125H314.469ZM314.469 255V256H315.469V255H314.469ZM307.875 255H306.875V256H307.875V255ZM307.875 210.562V211.562H331.375V210.562V209.562H307.875V210.562ZM331.375 210.562V211.562C333.222 211.562 334.874 212.017 336.356 212.917L336.875 212.062L337.394 211.208C335.584 210.108 333.57 209.562 331.375 209.562V210.562ZM336.875 212.062L336.368 212.925C337.891 213.819 339.092 215.012 339.984 216.511L340.844 216L341.703 215.489C340.637 213.697 339.192 212.264 337.382 211.2L336.875 212.062ZM340.844 216L339.989 216.519C340.889 218.001 341.344 219.653 341.344 221.5H342.344H343.344C343.344 219.305 342.798 217.291 341.698 215.481L340.844 216ZM342.344 221.5H341.344V225.938H342.344H343.344V221.5H342.344ZM342.344 225.938H341.344C341.344 227.789 340.898 229.431 340.018 230.89L340.875 231.406L341.732 231.922C342.811 230.131 343.344 228.128 343.344 225.938H342.344ZM340.875 231.406L340.014 230.898C339.145 232.371 337.959 233.541 336.439 234.414L336.938 235.281L337.436 236.148C339.25 235.105 340.688 233.691 341.736 231.914L340.875 231.406ZM336.938 235.281L336.439 234.414C334.935 235.279 333.244 235.719 331.344 235.719V236.719V237.719C333.568 237.719 335.607 237.2 337.436 236.148L336.938 235.281ZM331.344 236.719L330.534 237.306L343.784 255.587L344.594 255L345.403 254.413L332.153 236.132L331.344 236.719ZM344.594 255V254H336.562V255V256H344.594V255ZM336.562 255L337.372 254.413L324.122 236.132L323.312 236.719L322.503 237.306L335.753 255.587L336.562 255ZM323.312 236.719V235.719H318.219V236.719V237.719H323.312V236.719ZM318.219 236.719H319.219V230.156H318.219H317.219V236.719H318.219ZM318.219 230.156V231.156H331.375V230.156V229.156H318.219V230.156ZM331.375 230.156V231.156C332.856 231.156 334.151 230.644 335.198 229.622L334.5 228.906L333.802 228.19C333.14 228.836 332.352 229.156 331.375 229.156V230.156ZM334.5 228.906L335.207 229.613C336.245 228.575 336.781 227.302 336.781 225.844H335.781H334.781C334.781 226.761 334.463 227.529 333.793 228.199L334.5 228.906ZM335.781 225.844H336.781V221.5H335.781H334.781V225.844H335.781ZM335.781 221.5H336.781C336.781 220.027 336.249 218.741 335.207 217.699L334.5 218.406L333.793 219.113C334.459 219.78 334.781 220.557 334.781 221.5H335.781ZM334.5 218.406L335.207 217.699C334.162 216.654 332.864 216.125 331.375 216.125V217.125V218.125C332.344 218.125 333.13 218.45 333.793 219.113L334.5 218.406ZM331.375 217.125V216.125H314.469V217.125V218.125H331.375V217.125ZM314.469 217.125H313.469V255H314.469H315.469V217.125H314.469ZM314.469 255V254H307.875V255V256H314.469V255ZM307.875 255H308.875V210.562H307.875H306.875V255H307.875ZM350.875 210.562V209.562H349.875V210.562H350.875ZM359.438 210.562L360.312 210.078L360.027 209.562H359.438V210.562ZM378.781 245.469L377.907 245.953L379.781 249.336V245.469H378.781ZM378.781 210.562V209.562H377.781V210.562H378.781ZM385.375 210.562H386.375V209.562H385.375V210.562ZM385.375 255V256H386.375V255H385.375ZM376.812 255L375.941 255.49L376.227 256H376.812V255ZM357.469 220.562L358.341 220.073L356.469 216.74V220.562H357.469ZM357.469 255V256H358.469V255H357.469ZM350.875 255H349.875V256H350.875V255ZM350.875 210.562V211.562H359.438V210.562V209.562H350.875V210.562ZM359.438 210.562L358.563 211.047L377.907 245.953L378.781 245.469L379.656 244.984L360.312 210.078L359.438 210.562ZM378.781 245.469H379.781V210.562H378.781H377.781V245.469H378.781ZM378.781 210.562V211.562H385.375V210.562V209.562H378.781V210.562ZM385.375 210.562H384.375V255H385.375H386.375V210.562H385.375ZM385.375 255V254H376.812V255V256H385.375V255ZM376.812 255L377.684 254.51L358.341 220.073L357.469 220.562L356.597 221.052L375.941 255.49L376.812 255ZM357.469 220.562H356.469V255H357.469H358.469V220.562H357.469ZM357.469 255V254H350.875V255V256H357.469V255ZM350.875 255H351.875V210.562H350.875H349.875V255H350.875Z" fill="#8CD1FF" mask="url(#path-3-outside-1_1_9)"/>
<defs>
<filter id="filter0_i_1_9" x="181.625" y="141.562" width="244.75" height="154.438" filterUnits="userSpaceOnUse" color-interpolation-filters="sRGB">
<feFlood flood-opacity="0" result="BackgroundImageFix"/>
<feBlend mode="normal" in="SourceGraphic" in2="BackgroundImageFix" result="shape"/>
<feColorMatrix in="SourceAlpha" type="matrix" values="0 0 0 0 0 0 0 0 0 0 0 0 0 0 0 0 0 0 127 0" result="hardAlpha"/>
<feOffset dx="100" dy="40"/>
<feGaussianBlur stdDeviation="20"/>
<feComposite in2="hardAlpha" operator="arithmetic" k2="-1" k3="1"/>
<feColorMatrix type="matrix" values="0 0 0 0 0 0 0 0 0 0.933333 0 0 0 0 1 0 0 0 0.25 0"/>
<feBlend mode="normal" in2="shape" result="effect1_innerShadow_1_9"/>
</filter>
<linearGradient id="paint0_linear_1_9" x1="153" y1="45" x2="421" y2="353" gradientUnits="userSpaceOnUse">
<stop offset="0.412267" stop-color="#6C31F4"/>
<stop offset="0.501992" stop-color="#9067F3"/>
<stop offset="0.588573" stop-color="#A985FF"/>
<stop offset="0.644342" stop-color="#AC94F1"/>
</linearGradient>
</defs>
</svg>
